<?xml version="1.0" encoding="iso-8859-1"?>
<!-- Generator: Adobe Illustrator 19.0.0, SVG Export Plug-In . SVG Version: 6.00 Build 0)  -->
<svg version="1.1" id="Layer_1" xmlns="http://www.w3.org/2000/svg" xmlns:xlink="http://www.w3.org/1999/xlink" x="0px" y="0px"
	 viewBox="0 0 512.003 512.003" style="enable-background:new 0 0 512.003 512.003;" xml:space="preserve">
<path style="fill:#B3B3B3;" d="M494.336,472.034c-2.77-0.134-5.341,0.559-8.067,0.858c-3.569,0.391-7.425-0.112-11.013-0.272
	c-6.92-0.31-13.652-0.999-20.594-0.995c-3.512,0.002-6.998-0.271-10.497-0.509c0.177-0.325,0.325-0.669,0.483-1.006
	c0.663-0.021,1.355-0.114,2.081-0.305c4.472-0.896,8.851-0.145,13.345-0.496c2.148-0.169,4.074-0.922,6.158-1.247
	c2.561-0.399,5.038-0.117,7.642-0.754c9.486-2.319,7.73-18.093-2.348-17.347c-1.411,0.104-2.81,0.094-4.208,0.132
	c-0.363-0.165-0.751-0.303-1.155-0.421c0.179-0.55,0.317-1.135,0.348-1.799c0.331-6.882,2.46-13.698,2.617-20.527
	c0.083-3.669-1.605-7.6-4.319-9.921c-0.099-9.358-0.214-18.666-0.847-28.074c-0.834-12.376-0.109-24.787-0.7-37.179
	c-0.357-7.478-1.3-14.889-2.25-22.302c0.357-5.307,0.685-10.607,0.927-15.94c0.399-8.786,0.911-17.533,0.571-26.338
	c-0.145-3.749-0.386-7.522-0.638-11.267c-0.083-1.244-0.275-2.434-0.512-3.606c3.172,0.184,5.976-0.571,8.715-2.8
	c0.388-0.316,0.748-0.643,1.09-0.98c2.07-1.39,3.597-3.602,4.569-5.984c0.053-1.216,0.259-1.599,0.616-1.148
	c4.797-8.258-2.057-15.181-9.27-15.042c-1.367-1.131-2.782-1.735-4.389-2.472c1.91,0.876-0.762-0.516-1.353-0.914
	c-2.705-1.815-5.488-2.637-8.786-2.349c-0.8,0.07-1.563,0.223-2.298,0.433c-1.802-5.621-5.407-11.351-11.625-12.292
	c-4.699-0.711-8.837,0.522-11.485,4.674c-0.068,0.107-0.123,0.222-0.189,0.33c-2.429,1.082-4.44,3.166-5.293,6.327
	c-0.055,0.203-0.085,0.415-0.133,0.622c-1.747-1.275-3.951-2.033-6.34-2.005c-3.498,0.04-6.924,1.673-9.936,3.27
	c-0.335,0.177-0.513,0.281-0.601,0.342c-0.83,0.3-1.749,0.516-2.517,0.884c-1.136,0.544-2.248,1.213-3.274,1.982
	c-4.364-0.237-8.104,2.667-10.298,6.67c-3.93,7.172-5.885,24.129,6.447,24.129c3.653,0,6.708-1.815,8.666-4.516
	c0.859-0.795,1.519-1.76,2.056-2.82c0.097,0.348,0.188,0.701,0.291,1.044c0.695,2.316,2.655,4.059,4.913,4.905
	c0.653,3.67,0.828,7.487,0.76,11.201c-0.151,8.097-0.433,16.045,0.313,24.115c0.757,8.189-0.733,16.42,0.129,24.611
	c0.781,7.416,2.401,14.234,2.235,21.818c-0.176,8.028,2.634,15.617,3.423,23.554c0.822,8.283,1.294,16.717,1.424,25.021
	c0.023,1.435,0.163,2.848,0.332,4.256c-3.363,0.356-7.114,2.915-7.657,6.383c-0.449,2.863-0.317,5.756-0.03,8.66
	c-0.63,7.902,0.221,15.831,0.929,23.763c-1.024-0.526-2.081-0.973-3.222-1.235c-10.02-2.3-16.314,8.704-12.058,17.023
	c2.037,3.981,6.985,5.233,10.932,3.812c0.503-0.094,0.993-0.228,1.475-0.392c0.763,0.191,1.525,0.309,2.283,0.349
	c-0.18,1.252-0.305,2.545-0.288,3.822c-27.793,3.63-56.903,1.946-85.058,1.986c-7.135,0.009-14.278-0.083-21.409,0.145
	c-7.065,0.227-13.908-1.158-20.969-0.885c-1.955,0.076-3.9,0.179-5.842,0.288c1.005-1.929,1.76-3.972,2.362-5.589
	c2.045-5.491,5.127-10.921,3.074-16.965c-1.169-3.441-3.984-5.316-7.002-5.38c-1.892-1.419-4.308-2.139-6.671-1.907
	c0.502-6.258,1.047-12.367,0.329-18.856c-0.259-2.338-0.547-4.655-0.831-6.964c0.758-4.783,1.183-9.619,0.423-14.435
	c-0.926-5.87-1.323-11.479-1.554-17.421c-0.059-1.541-0.211-3.109-0.373-4.689c-0.028-3.635-0.107-7.272-0.274-10.912
	c0.033-0.235,0.049-0.474,0.09-0.707c0.224-1.259,0.082-2.469-0.319-3.566c-0.146-2.267-0.362-4.65-0.828-6.962
	c0.002-0.062,0.002-0.125,0.006-0.186c0.519-12.693,0.471-25.43,0.326-38.134c-0.074-6.401-0.463-12.775-0.777-19.166
	c-0.255-5.177-0.29-9.977-1.557-14.763c1.105-1.651,1.774-3.753,1.749-6.334c-0.021-2.253-0.083-4.504-0.139-6.751
	c0.171,0.02,0.339,0.043,0.512,0.061c3.666,0.382,7.154-2.294,9.012-5.17c0.894-1.384,1.396-2.985,1.73-4.664
	c1.018-1.085,1.733-2.473,2.009-4.155c0.961-2.654,0.902-5.711-0.244-8.156c-0.14-5.998-5.256-9.556-10.43-9.848
	c-0.338-0.714-0.726-1.421-1.192-2.113c-0.7-1.041-1.495-1.902-2.351-2.613c-0.386-1.848-0.935-3.648-1.757-5.297
	c4.275,0.203,8.556,0.376,12.861,0.371c9.994-0.012,19.989,0,29.982,0c10.983,0,21.967-0.081,32.882-0.914
	c0.871,1.374,2.372,2.374,4.542,2.428c5.563,0.138,11.244-0.306,16.843-1.097c1.555,0.231,3.108,0.472,4.643,0.794
	c3.056,0.639,5.918,1.493,8.994,2.065c-4.649-0.864,1.478,0.936,2.434,1.182c7.825,2.009,16.826-0.843,24.478-1.982
	c8.504-1.265,18.189-3.08,26.126-6.808c0.15-0.037,0.298-0.072,0.446-0.11c3.907,0.305,7.822,0.561,11.775,0.508
	c4.243-0.058,8.656-0.444,12.894-0.16c4.543,0.304,8.284,1.278,12.777-0.189c10.536-3.439,11.631-15.585,13.22-24.834
	c0.904-5.265,0.252-10.198,0.616-15.475c0.358-5.183,0.846-10.31,0.38-15.525c-0.218-2.444-0.909-4.649-0.96-7.062
	c-0.036-1.645,0.182-3.282,0.129-4.925c-0.154-4.9-1.326-9.02-4.408-12.884c-1.539-1.929-3.214-3.761-5.107-5.324
	c-0.044-4.981-3.816-9.819-8.847-10.525c-6.264-2.965-12.566-6.525-19.567-9.704c-9.333-4.237-15.927-12.151-24.249-18.049
	c-16.967-12.026-33.088-24.773-51.27-35.009c-3.951-2.224-7.863-4.363-11.743-6.767c-2.401-1.488-4.762-3.07-7.209-4.478
	c-2.443-1.405-5.219-2.154-7.636-3.511c-2.725-1.527-5.743-2.791-8.619-4.332c-4.862-2.604-9.228-5.896-14.032-8.59
	c-4.419-2.478-8.663-5.124-13.02-7.695c-3.191-1.885-6.801-3.018-9.84-5.134c-4.298-2.992-8.48-4.872-13.334-6.841
	c-0.164-0.066-0.316-0.131-0.476-0.197c-0.046-6.833-5.649-13.04-13.53-10.869c-0.281,0.097-0.569,0.166-0.857,0.235
	c-3.524,0.218-6.532,1.355-10.352,3.128c-4.752,2.205-9.872,3.588-14.651,5.795c-9.636,4.449-19.319,8.72-28.931,13.246
	c-9.353,4.404-19.381,7.46-28.343,12.585c-4.13,2.362-8.733,3.803-12.961,6.001c-4.842,2.517-9.315,5.35-14.32,7.578
	c-10.064,4.48-18.906,10.748-28.243,16.419c-4.256,2.585-8.835,4.567-13.056,7.306c-4.97,3.226-9.76,6.722-14.621,10.111
	c-9.067,6.322-18.862,11.738-27.609,18.424c-3.684,2.816-7.87,4.8-11.766,7.311c-3.692,2.38-6.563,5.576-10.01,8.091
	c-4.236,3.091-8.289,6.355-12.468,9.523c-2.7,2.046-4.476,4.478-6.107,7.11c-0.191,0.087-0.386,0.166-0.571,0.266
	c-6.925,3.736-7.435,11.249-9.229,18.116c-1.519,5.818-1.806,11.287-2.55,17.194c-1.889,14.999,0.185,30.316,0.697,45.339
	c0.311,9.118,9.791,12.217,16.036,9.234c4.461,0.737,9.23,0.781,13.205,1.202c3.743,0.396,7.489,0.005,11.233,0.36
	c2.521,0.239,4.981,0.463,7.447,0.61c-3.962,1.061-7.777,2.527-11.223,4.542c-2.012-0.363-4.129-0.3-6.32,0.085
	c-6.074,1.071-12.861,2.835-16.706,7.628c-1.829,1.017-3.419,2.669-4.445,4.997c-1.774,4.027-1.333,8.816,0.662,12.5
	c-0.71,10.378,12.862,14.75,19.166,5.929c1.838-2.571,3.27-4.624,5.646-6.041c-0.131,1.211-0.236,2.407-0.272,3.562
	c-0.155,5.056-0.598,10.128-0.313,15.186c-0.097,1.685-0.182,3.374-0.24,5.07c-0.335,9.801-0.039,19.859,1.493,29.544
	c0.464,2.931,2.558,5.038,5.184,6.177c-0.481,9.003-0.642,17.994-0.814,27.064c-0.129,6.825-0.266,13.529-0.011,20.353
	c0.076,2.034,0.104,4.06,0.195,6.085c0.02,2.352,0.062,4.703,0.134,7.051c0.313,10.13,0.14,20.303,0.628,30.422
	c0.347,7.208-0.508,15.126,1.455,22.194c-0.8,1.396-1.746,2.658-3.054,3.6c-1.665,1.198-4.753,1.847-5.426,4.128
	c-0.166,0.057-0.332,0.113-0.5,0.17c-1.422,0.176-2.848,0.796-4.13,1.396c-4.845,2.264-9.89,6.698-10.245,12.35
	c-0.165,2.638,0.62,5.507,1.348,8.041c0.141,0.494,0.19,0.976,0.216,1.466c-0.159-1.734-0.9,2.371-1.11,3.199
	c-0.15,0.59-0.224,1.174-0.268,1.754c-1.982,0.104-3.938,0.151-5.813,0.013c-4.35-0.319-8.72-0.781-13.059,0.267
	c-6.359,1.536-6.973,6.307-9.323,11.449c-1.901,4.161-0.668,7.917,1.843,10.158c-0.243,0.993,0.104,2.151,1.066,2.645
	c2.714,1.397,5.592,0.983,8.523,1.327c5.387,0.633,10.736,1.39,16.16,1.717c10.577,0.64,21.318,0.37,31.845-0.274
	c10.6-0.648,20.931-1.387,31.584-1.351c10.155,0.034,20.809-0.85,30.894,0.343c9.851,1.165,19.629,1.423,29.535,2.048
	c9.98,0.63,20.231,1.517,30.217,1.22c5.119-0.152,10.07,0.636,15.15,0.211c2.648-0.221,8.279,0.739,12.588,0.641
	c5.493-0.126,10.766,0.733,16.23,0.921c5.805,0.199,11.636-0.132,17.444-0.119c11.975,0.027,23.94-1.053,35.811-2.594
	c5.805-0.754,11.665-1.033,17.354-1.879c0.949,0.377,1.9,0.686,2.825,0.902c4.105,0.957,8.453,0.38,12.629,0.374
	c5.344-0.007,10.671-0.038,16.01-0.294c20.294-0.973,40.675-0.939,60.943-2.261c19.508-1.273,38.725-0.254,58.195,1.252
	c8.53,0.66,16.921,2.234,25.494,1.489c9.365-0.813,15.112-8.094,18.922-16.054C505.274,479.449,501.606,472.387,494.336,472.034z
	 M158.204,211.321c0.672-0.025,1.344-0.038,2.016-0.068c1.487-0.065,2.972-0.171,4.457-0.266c0.044,0.058,0.084,0.119,0.129,0.176
	c-2.219,0.115-4.443,0.179-6.67,0.18C158.159,211.335,158.182,211.328,158.204,211.321z M202.251,474.346
	c-11.257-0.014-22.405,0.87-33.581,1.916c-7.011-5.188-17.515-5.611-26.479-5.92c-7.711-0.266-15.635-1.45-23.445-1.607
	c0.385-2.031,0.395-4.214,0.106-6.492c-0.658-5.167-0.826-10.511-2.219-15.537c-1.271-4.581-3.377-8.454-5.12-12.771
	c-1.017-2.52-2.186-5.163-3.951-7.154c0.141-0.618,0.255-1.25,0.325-1.895c0.012-0.113,0.021-0.196,0.031-0.282
	c-0.009,0.229,0.037,0.158,0.287-1.343c0.433-2.591,0.636-5.167,0.631-7.789c-0.008-4.433-0.258-8.881-0.338-13.315
	c-0.184-10.035-0.572-20.072-1.075-30.096c-0.208-4.144-0.483-8.286-0.901-12.417c-0.335-3.304-1.145-6.665-1.501-10.003
	c-0.058-1.173-0.096-2.344-0.167-3.518c-0.158-2.618-1.043-4.737-2.364-6.36c-0.074-1.208-0.131-2.416-0.208-3.625
	c-0.208-3.244-0.252-6.993-0.583-10.733c0.549-1.235,0.9-2.645,0.959-4.251c0.428-11.556,4.325-22.635,4.916-34.202
	c0.268-5.243,0.023-10.519-0.211-15.768c0.904-0.17,1.77-0.457,2.54-0.884c5.926-3.291,8.621-8.914,7.952-15.601
	c-0.303-3.02-1.082-5.838-3.036-8.227c-1.6-1.957-3.671-2.918-5.573-3.549c-0.033-0.036-0.062-0.074-0.096-0.108
	c-0.286-0.29-1.843-1.599-2.501-2.122c-0.284-0.399-1.762-2.063-2.045-2.344c-0.982-0.978-2.121-1.815-3.317-2.498
	c0.85,0.005,1.701,0.011,2.55,0.001c9.533-0.103,19.047-0.658,28.609-0.658c9.639,0,19.343,0.488,28.972,0.206
	c8.917-0.26,17.671-2.001,26.53-2.666c0.02-0.001,0.042-0.004,0.062-0.006c0.088,0.02,0.182,0.037,0.267,0.058
	c3.24,0.794,6.458,1.269,9.766,1.701c7.758,1.012,14.659,0.865,22.449,0.336c1.508-0.103,3.015-0.243,4.521-0.392
	c-0.139,2.168-0.242,4.257-0.417,6.135c-0.148,1.596-0.259,3.207-0.352,4.823c-0.188,0.053-0.375,0.108-0.559,0.171
	c-0.145-0.546-0.341-1.08-0.597-1.595c0.953-1.626,0.824-3.883-1.226-4.997c-4.214-2.288-9.219-4.648-12.694-0.484
	c-0.296,0.053-0.589,0.114-0.881,0.183c-3.68,0.857-6.162,3.365-8.568,5.461c-2.527,2.2-5.863,4.331-6.951,8.279
	c-1.256,4.56,0.794,7.622,2.025,11.553c-1.97,2.39-3.043,5.223-2.158,9.219c1.184,5.341,8.324,6.844,11.988,3.165
	c0.621-0.623,1.152-1.244,1.637-1.872c3.791,0.373,7.853-1.451,8.679-5.675c0.209-1.067,0.299-2.129,0.316-3.183
	c1.327-0.695,2.661-1.259,3.949-1.86c0.381,2.075,0.754,4.159,1.055,6.239c-0.291,3.93-0.546,8.743,0.624,12.306
	c0.017,4.152-0.052,8.303,0.078,12.458c0.26,8.258-0.51,17.404,1.981,25.351c0.471,7.774,1.291,15.576,1.733,23.333
	c0.121,2.13,0.268,4.256,0.421,6.379c-0.563,8.397-0.354,16.839-0.347,25.249c0.002,2.224,0.031,4.446,0.096,6.66
	c-0.756,1.263-1.19,2.828-1.137,4.706c0.055,2.452,0.112,4.911,0.166,7.371c-1.649,1.116-2.879,2.81-3.274,5.1
	c-2.035,11.786-0.313,24.407,0.603,36.251c0.196,2.536,0.334,5.109,0.456,7.7c-2.998-0.447-5.946-0.171-8.428,1.224
	c-3.284,1.846-5.833,4.981-7.628,8.258c-0.577,1.054-1.078,2.148-1.489,3.273c-2.459,2.105-3.54,5.513-1.122,9.031
	c0.286,0.669,1.179,2.551,2.154,4.085c0.617,1.176,1.339,2.254,2.418,3.018c0.337,0.527,0.688,1.035,1.054,1.508
	c0.221,0.286,0.453,0.557,0.69,0.824C206.965,474.23,204.617,474.349,202.251,474.346z"/>
<g>
	<path style="fill:#999999;" d="M312.445,84.569c-2.883-3.111-6.315-5.055-10.028-6.382c-6.332-4.6-12.081-10.45-18.755-14.312
		c-4.152-2.402-8.516-4.283-12.953-6.059c-1.187-4.02-5.445-7.093-9.571-7.281c-0.853-0.039-1.637,0.025-2.389,0.138
		c-2.325-4.022-6.725-6.645-11.691-4.574c-12.953,5.402-25.071,13.23-36.883,20.761c-5.742,3.661-10.916,7.749-17.055,10.785
		c-4.268,2.11-8.346,4.506-12.43,6.904c-3.669,1.669-6.964,2.587-9.645,5.958c-1.177,1.48-1.913,3.083-2.287,4.703
		c-2.186,1.114-4.43,2.096-6.741,2.781c-7.039,2.085-18.913,4.565-21.674,12.375c-0.723,2.046,0.146,3.766,1.59,4.79
		c-8.126,0.229-16.266,0.688-24.334,1.671c-8.088,0.984-16.104,2.439-24.191,3.398c4.141-3.062,8.305-6.084,12.601-8.953
		c5.875-3.925,12.049-8.459,18.426-11.505c6.91-3.302,13.929-6.471,20.869-9.75c13.344-6.304,25.831-13.225,38.394-20.95
		c12.697-7.807,25.221-16.077,37.689-24.159c4.655-3.018,0.577-10.041-4.352-7.446c-13.476,7.094-27.14,14.241-40.904,20.864
		c-3.41,1.641-6.637,3.53-9.966,5.321c-3.577,1.925-7.437,2.948-11.079,4.713c-6.868,3.328-13.887,5.947-20.989,8.785
		c-7.047,2.818-14.574,4.949-21.363,8.32c-6.888,3.419-13.486,7.662-19.875,11.925c-6.301,4.204-12.363,8.732-18.6,13.001
		c-6.466,4.426-11.846,10.506-10.322,18.853c0.014,0.075,0.049,0.142,0.066,0.216c-1.082,3.575,1.499,8.243,5.665,7.907
		c8.704-0.701,17.51,1.692,26.297,1.465c9.021-0.234,18.088-0.7,27.091-1.33c9.096-0.636,18.14-0.656,27.246-0.874
		c9.467-0.227,18.815-1.214,28.285-0.345c18.367,1.686,36.679,3.358,55.024,5.323c9.571,1.025,18.454,1.103,27.982-0.296
		c8.178-1.2,17.013-2.365,23.33-8.301c1.188-1.117,0.654-2.748-0.464-3.604c-3.213-2.459-8.302-2.828-12.241-3.403
		c-4.28-0.624-8.494-0.787-12.808-0.832c-9.201-0.094-18.359-2.724-27.367-4.49c-19.001-3.727-38.426-6.031-57.79-6.843
		c-8.735-0.367-17.469,0.819-26.198,1.141c0.299-0.288,0.579-0.614,0.807-1.019c1.094-1.957,11.372-2.128,13.277-2.276
		c5.122-0.398,9.747-1.279,14.604-2.996c0.261-0.093,0.522-0.188,0.783-0.28c1.908,0.157,4.014-0.256,6.215-1.446
		c1.625-0.877,3.247-1.755,4.868-2.636c2.556-0.987,5.091-2.022,7.615-3.093c1.885,1.351,4.222,2.192,6.714,2.482
		c8.559,0.993,17.241,1.6,25.828,2.405c3.955,0.37,7.978,0.45,11.934,0.052c2.526-0.254,4.433-1.163,6.236-2.288
		c3.336,0.185,6.669,0.395,9.995,0.652c9.194,0.711,18.405,1.24,27.601,1.925c7.818,0.583,15.85,1.44,23.09-1.996
		c1.723-0.818,3.064-2.113,4.023-3.663C316.065,97.031,317.627,90.159,312.445,84.569z"/>
	<path style="fill:#999999;" d="M432.602,225.109c-10.029-2.293-19.996-4.092-30.147-5.761c-10.569-1.738-21.243-2.49-31.8-4.144
		c-20.989-3.288-41.952-3.588-63.163-2.813c-4.421,0.161-8.834,0.414-13.244,0.701c-1.984-0.188-3.965-0.354-5.912-0.567
		c-9.873-1.081-19.814-1.791-29.753-1.692c-7.331,0.074-14.667,0.342-22.004,0.698c-27.003-3.564-53.797,0.636-80.709,2.162
		c-7.67-0.46-15.345-1.158-23.054-2.086c-9.738-1.173-19.849-2.024-29.661-2.257c-3.674-0.088-7.259,0.017-10.883-0.141
		c-0.161-0.494-0.328-0.982-0.493-1.463c-1.431-4.179-2.11-8.79-3.265-13.059c-2.208-8.157-2.884-17.014-4.385-25.377
		c-1.244-6.925-2.308-16.294-8.88-20.373c-4.648-2.884-8.665-2.522-11.936-0.453c-4.743-3.451-11.212-2.667-15.614,1.233
		c-2.321,2.057-3.81,5.032-4.919,8.142c-1.492-0.866-3.239-1.454-5.311-1.663c-4.299-0.432-7.449,0.92-9.785,3.254
		c-2.545-0.02-5.071,1.685-5.306,5.164c-0.174,2.588-0.329,5.16-0.488,7.723c-0.332,1.637-0.587,3.255-0.792,4.781
		c-0.625,4.669-0.884,9.358-0.948,14.059c-0.12,0.834-0.236,1.669-0.374,2.505c-1.326,8.067-2.605,18.481,2.09,25.722
		c3.13,4.827,9.347,6.03,13.866,3.706c0.649,1.124,1.378,2.222,2.209,3.285c3.575,4.569,9.845,4.171,14.329,1.389
		c4.462,1.106,9.142,1.542,12.478,1.958c12.898,1.611,27.205,2.896,40.619,4.521c20.773,2.516,40.857,4.276,61.726,1.771
		c2.776-0.334,5.551-0.679,8.324-1.033c2.756,0.097,5.519,0.139,8.291,0.112c22.289-0.222,44.524-2.21,66.8-2.787
		c11.08-0.287,22.169,0.056,33.249-0.157c5.217-0.1,10.518-0.093,15.727-0.432c5.702-0.371,10.625-2.076,16.046-3.476
		c8.14-0.197,16.287-0.439,24.423-0.311c10.416,0.164,20.618,1.268,30.982,2.06c20.487,1.567,41.48,3.603,61.665-0.877
		C434.598,228.69,434.584,225.563,432.602,225.109z"/>
	<path style="fill:#999999;" d="M438.675,170.712c-0.536-9.928-9.781-12.377-18.021-11.932c-9.948,0.538-19.699,1.357-29.674,1.208
		c-9.821-0.145-19.695,1.155-29.476,1.963c-4.853,0.401-9.631,0.841-14.435,1.589c-4.595,0.714-9.247-0.013-13.923,0.259
		c-7.112,0.414-7.209,10.93,0,11.127c4.06,0.11,7.993,1.087,12.027,1.173c3.19,0.068,6.233-0.189,9.44,0.098
		c8.803,0.789,17.609,1.48,26.416,2.209c8.065,0.667,16.128,2.066,24.236,2.038c2.747-0.009,5.488-0.226,8.232-0.388
		c-0.203,0.465-0.381,0.894-0.519,1.265c-0.71,1.925-1.2,4.168-1.849,6.296c-0.468,0.021-0.936,0.047-1.403,0.095
		c-2.99,0.205-5.982,0.672-8.94,1.126c-4.874,0.749-9.669,1.665-14.443,2.869c-4.703,1.186-9.096,2.142-13.575,3.99
		c-4.527,1.867-9.858,2.236-13.828,5.236c-2.991,2.261-1.993,6.658,1.895,6.998c9.356,0.818,18.617,1.79,28.004,2.235
		c8.569,0.406,17.234-0.31,25.822-0.254c10.69,0.069,14.642-7.52,17.356-16.53C434.203,186.139,439.092,178.428,438.675,170.712z"/>
	<path style="fill:#999999;" d="M87.398,394.836c-1.348-5.762-2.062-11.44-2.497-17.332c-0.908-12.291-1.785-24.753-3.221-36.992
		c-1.508-12.868-1.878-25.83-3.437-38.685c-0.121-1-0.273-1.993-0.439-2.982c0.202-8.348,0.185-16.676-0.808-25.041
		c-0.331-2.787-2.043-4.656-4.124-5.578c-0.024-1.867,0.147-3.679,0.659-5.362c0.388-1.276,0.424-2.421,0.198-3.414
		c0.077-0.33,0.17-0.647,0.217-0.999c0.513-3.752-0.442-6.496-3.547-8.717c-2.545-1.819-5.143-2.161-7.764-1.861
		c-0.277-0.723-0.7-1.441-1.298-2.132c-4.193-4.833-12.611-4.238-19.549-0.846c-10.782,3.299-20.061,16.045-11.224,24.882
		c5.926,5.926,15.62,2.846,22.53,1.015c1.614-0.428,3.467-0.803,5.382-1.227c-1.237,9.114-0.223,18.878,0.135,27.742
		c0.546,13.509,1.168,27.098,2.16,40.586c-0.752,6.891-1.527,13.779-2.209,20.675c-1.424,14.425-2.367,28.833-2.852,43.316
		c-0.297,8.828-1.456,31.166,10.679,33.377c4.008,0.73,6.938-0.608,9.312-3.79c0.112-0.15,0.223-0.298,0.334-0.447
		c1.389-1.862,1.425-5.584,0-7.441c-3.087-4.02-3.875-10.265-3.957-16.548c1.055,1.404,2.236,2.712,3.596,3.874
		c0.056-0.096,0.112-0.191,0.167-0.287c2.605,2.879,6.86,4.118,10.048,0.287C90.436,405.443,88.861,401.089,87.398,394.836z"/>
	<path style="fill:#999999;" d="M77.779,480.721c-3.74-5.915-9.609-7.687-16.095-7.695c1.377-2.091,1.639-4.263,1.879-6.586
		c0.252-0.533,0.471-1.097,0.635-1.706c0.73-2.712,0.703-4.95,0.077-7.234c2.58-2.955,5.43-5.653,7.942-8.661
		c4.044-4.84-1.041-12.792-7.079-9.174c-2.534,1.518-9.339,3.396-10.857,5.829c-0.126,0.202-0.183,0.356-0.21,0.489
		c-0.093,0.004-0.17,0.002-0.277,0.008c-2.491,0.148-4.16,0.218-6.498,1.408c-2.946,1.499-4.823,5.099-4.778,8.329
		c0.002,0.171,0.017,0.348,0.027,0.523c-0.055,0.161-0.113,0.322-0.159,0.488c-1.551,5.538,0.363,13.6,4.974,18.115
		c-4.223,0.841-8.259,1.714-11.714,2c-10.393,0.86-10.711,16.192,0,16.411c8.148,0.167,16.301-0.742,24.351-1.919
		c6.656-0.974,13.522-0.552,17.781-6.695C78.535,483.56,78.473,481.819,77.779,480.721z"/>
	<path style="fill:#999999;" d="M242.461,420.81c3.585-9.459,4.479-19.814,3.984-29.869c-0.624-12.688-1.396-25.277-1.701-37.99
		c-0.64-26.64-2.929-53.292-3.887-79.938c-0.069-1.912-1.113-3.14-2.441-3.714c-0.769-4.127-1.964-8.146-3.991-11.907
		c-0.421-3.126-0.877-6.252-1.215-9.453c-0.303-2.857-1.939-6.174-5.137-6.746c-4.271-0.764-6.824,0.622-10.136,3.162
		c-0.381,0.293-0.763,0.559-1.145,0.831c-0.921-0.707-2.005-1.273-3.227-1.696c-0.367-0.322-0.771-0.609-1.238-0.827
		c-6.395-2.994-13.129-3.831-19.5-0.102c-7.155,4.188-10.748,13.977-8.667,21.929c2.216,8.472,11.751,13.073,20.008,11.383
		c5.025-1.029,9.542-4.09,12.704-8.165c0.495-0.193,0.98-0.414,1.453-0.666c0.83-0.443,1.578-0.929,2.273-1.453
		c-0.152,3.24-0.355,6.433-0.297,9.378c0.106,5.366,0.102,11.486,2.092,16.67c-0.094,5.486-0.263,10.967-0.463,16.455
		c-0.642,17.679-1.551,35.345-1.615,53.039c-0.061,16.873-0.455,33.967,1.45,50.765c0.901,7.948,3.076,15.762,4.911,23.536
		c1.651,6.998,2.689,15.204,8.075,20.427c2.599,2.521,5.983,1.226,7.605-1.061c0.03,0.023,0.061,0.046,0.09,0.069
		c1.861-3.485,1.385-6.575,1.569-10.398c0.174-3.622,0.452-6.841-0.033-10.486C243.392,429.54,242.873,425.184,242.461,420.81z"/>
	<path style="fill:#999999;" d="M436.92,485.501c-2.085,1.24-7.627,1.351-10.019,1.592c-2.85,0.287-7.393,1.106-9.896-0.196
		c-2.6-1.352-4.468-3.253-7.281-4.455c-3.72-1.59-7.303-2.586-11.369-2.929c-6.846-0.578-13.511,1.863-20.404,1.887
		c-6.499,0.024-12.83,0.148-19.202,1.635c-6.894,1.609-12.55,2.312-19.69,1.639c-7.235-0.682-14.139-2.13-21.446-1.904
		c-6.034,0.188-11.915,1.415-17.94,1.554c-6.742,0.155-13.669,1.473-20.195-0.043c-6.302-1.463-12.971-1.047-19.405-1.308
		c-6.206-0.253-12.913-1.93-18.977-3.418c-5.75-1.412-11.316-1.164-17.132-1.517c1.865-3.095,3.113-6.596,3.037-10.259
		c-0.011-0.523-0.062-1.049-0.113-1.574c0.598-1.148,1.043-2.352,1.237-3.636c0.153-0.263,0.294-0.523,0.42-0.763
		c1.347-2.579,2.368-6.408-0.15-8.695c-0.85-0.773-1.705-1.379-2.82-1.729c0.012,0.03-1.359-0.263-2.043-0.386
		c-0.222-0.153-0.428-0.315-0.673-0.457c-3.151-1.843-7.656-2.082-10.785,0c-7.032,4.68-8.735,14.535-5.919,22.347
		c-0.909-0.226-1.836-0.408-2.791-0.516c-5.984-0.68-11.867,0.363-17.725,1.523c-6.847,1.355-13.501,1.069-20.447,0.56
		c-13.673-1.002-27.034-0.315-40.577,1.482c-15.499,2.056-31.982-1.358-47.239,2.479c-3.407,0.857-6.493,3.074-10.009,3.444
		c-1.639,0.173-3.209-0.313-4.861-0.189c-1.621,0.123-3.098,0.756-4.73,0.78c-4.581,0.066-7.904-2.376-10.55,2.768
		c-0.399,0.774-0.027,1.538,0.748,1.838c1.935,0.75,4.147,3.153,5.893,4.318c1.992,1.328,3.863,2.094,6.135,2.873
		c6.752,2.321,11.644,2.132,18.645,0.947c13.626-2.306,27.962,0.813,41.746-0.271c6.583-0.517,13.166-1.949,19.751-2.212
		c7.092-0.284,14.57-0.05,21.653,0.443c6.501,0.452,12.826,0.875,19.331,0.089c6.34-0.766,12.464-3.451,18.86-3.557
		c5.675-0.094,10.785,3.358,16.534,3.909c6.848,0.658,13.821-0.843,20.578,0.457c5.528,1.063,11.094,0.64,16.713,0.929
		c7.47,0.385,14.946-0.371,22.39-0.615c12.749-0.419,25.491-1.113,38.258-1.222c13.56-0.116,26.932,6.167,40.461,4.208
		c7.141-1.034,13.682-0.69,20.861-0.445c7.915,0.269,15.966-2.213,23.716-1.314c3.819,0.444,7.738,1.658,11.57,1.449
		c3.38-0.184,7.111-1.799,10.291-2.91c2.94-1.028,5.858-2.117,8.743-3.291c2.622-1.067,5.817-1.438,8.152-3.061
		C439.63,486.826,438.403,484.618,436.92,485.501z"/>
	<path style="fill:#999999;" d="M225.5,451.355c0.026,0.008,0.049,0.02,0.075,0.028C225.572,451.38,225.555,451.372,225.5,451.355z"
		/>
	<path style="fill:#999999;" d="M439.206,425.072c-0.57-6.236-0.279-12.484-0.347-18.733c2.211-8.491,0.674-19.279-0.078-26.416
		c-0.288-2.739-0.539-5.474-0.796-8.21c-0.015-1.455-0.025-2.91-0.024-4.365c0.018-12.629-0.193-25.374-1.33-37.956
		c-0.611-6.759-0.758-13.56-0.97-20.343c-0.138-4.409,0.428-8.689-2.423-12.182c-0.258-4.401-0.528-8.799-0.826-13.192
		c-0.533-7.835-1.577-15.689-2.825-23.441c-0.533-3.314-1.243-6.456-2.148-9.673c-0.402-1.43-0.61-2.909-0.894-4.364
		c0.072-0.224,0.07-0.341-0.056-0.266c-0.005-0.023-0.009-0.045-0.014-0.069c3.786-4.576,0.468-11.503-5.474-11.741
		c-6.012-0.242-11.015,3.524-14.784,7.876c-0.272,0.314-0.535,0.639-0.792,0.971c-2.865-1.679-6.93-1.364-8.841,1.682
		c-0.966,0.261-1.942,0.655-2.914,1.224c-6.785,3.971-7.297,17.977-3.892,24.171c2.759,5.019,8.342,7.367,13.765,5.552
		c4.326-1.448,6.974-5.137,9.49-8.72c0.977-1.39,1.904-2.801,2.826-4.212c0.007,0.188,0.019,0.374,0.024,0.561
		c0.208,7.199-0.036,14.388-0.091,21.586c-0.112,14.427-0.42,28.858,0.234,43.274c0.641,14.132,1.024,27.983,2.92,42.028
		c0.246,1.821,0.526,3.629,0.827,5.432c-0.017,0.337-0.039,0.673-0.057,1.01c-0.615,12.218-0.834,24.49-1.145,36.721
		c-0.274,10.803-1.202,28.563,11.119,33.072c3.597,1.316,7.897-0.89,9.766-3.975c0.764-1.26,1.061-2.702,1.06-4.185
		c0.036,0.062,0.071,0.123,0.107,0.186C440.783,434.065,439.6,429.379,439.206,425.072z"/>
</g>
<g>
	<path style="fill:#CCCCCC;" d="M404.582,105.905c-2.769-1.381-4.036-3.565-6.091-5.656c-1.764-1.794-3.864-3.142-5.941-4.527
		c-4.919-3.28-9.755-6.734-14.862-9.719c-10.1-5.904-20.692-10.509-30.763-16.417c-10.639-6.242-21.16-13.513-30.798-21.242
		c-2.044-1.639-4.268-2.711-6.448-4.129c-2.212-1.44-3.855-3.544-6.001-5.084c-4.35-3.121-8.476-7.307-13.76-8.732
		c-2.95-0.795-5.119,2.933-2.972,5.106c0.205,0.208,0.411,0.415,0.616,0.623c0.443,0.449,0.93,0.707,1.422,0.815
		c4.087,2.878,8.245,6.932,11.506,10.452c1.131,1.22,2.326,2.388,3.555,3.526c-6.97-3.767-13.867-7.701-20.399-12.17
		c-5.431-3.715-10.919-10.954-17.465-13.893c0.252-0.271,0.5-0.55,0.738-0.846c1.224-1.52,0.832-3.655-1.136-4.301
		c-6.034-1.977-11.975-0.19-17.966,1.649c-6.58,2.02-13.494,4.548-19.345,8.165c-5.353,3.31-10.83,6.363-15.536,10.581
		c-4.684,4.199-10.327,7.214-14.688,11.764c-1.254,1.309,0.437,3.784,2.022,2.622c4.765-3.493,10.36-4.982,15.594-7.564
		c5.304-2.616,10.553-5.305,15.894-7.845c-0.955,2.611,0.849,6.026,4.274,4.929c9.679-3.098,20.796-3.818,29.352-9.427
		c2.637,2.514,4.935,6.16,6.536,8.068c2.882,3.432,6.201,6.513,9.771,9.218c8.523,6.456,17.92,11.508,27.092,16.914
		c9.045,5.331,18.421,9.568,27.656,14.476c4.106,2.183,8.016,4.629,12.481,6.043c5.27,1.669,10.989,2.434,16.149,4.392
		c0.527,0.201,0.998,0.138,1.382-0.076c2.251,1.347,4.473,2.744,6.685,4.077c5.247,3.161,10.357,6.215,16.096,8.402
		c4.635,1.765,9.21,4.219,14.332,3.562C405.324,109.439,406.586,106.906,404.582,105.905z"/>
	<path style="fill:#CCCCCC;" d="M421.521,115.909c-0.852-2.018-3.61-2.668-5.185-1.029c-0.493,0.513-0.93,1.071-1.376,1.625
		c-0.639,0.794-1.399,1.732-0.926,2.809c0.773,1.758,3.079,1.023,4.563,1.027C420.876,120.347,422.391,117.972,421.521,115.909z"/>
	<path style="fill:#CCCCCC;" d="M408.449,124.485c-6.598-3.369-14.698-3.422-21.934-3.507c-8.371-0.097-16.667-0.605-24.985-1.536
		c-3.307-0.37-6.585-0.75-9.848-1.107c-8.144-1.894-16.021-4.636-24.445-5.677c-10.489-1.297-21.072-2.096-31.634-1.813
		c-10.436,0.28-20.898-0.011-31.334-0.193c-8.032-0.14-20.32,2.23-27.601-2.072c-1.861-1.099-3.485,1.724-1.684,2.882
		c3.188,2.052,7.064,2.097,10.69,2.897c3.96,0.874,7.905,1.633,11.924,2.216c11.06,1.605,22.216,3.177,33.389,3.672
		c7.139,0.316,14.227,0.832,21.323,1.38c0.088,0.015,0.171,0.037,0.266,0.044c16.56,1.297,32.487,6.772,48.956,8.911
		c8.241,1.071,16.664,1.927,24.985,1.713c6.833-0.177,15.626,0.889,21.934-1.924C410.766,129.337,410.584,125.576,408.449,124.485z"
		/>
	<path style="fill:#CCCCCC;" d="M387.724,153.887c-9.115-1.284-17.755-4.486-26.973-5.681c-10.681-1.385-21.541-2.006-32.288-2.763
		c-21.44-1.511-42.988,1.441-64.437,1.43c-10.667-0.006-21.276,0.165-31.94-0.197c-9.835-0.333-19.549-1.781-29.4-1.98
		c-10.683-0.215-21.333,0.388-31.968,1.366c-4.508,0.414-9.013,0.871-13.504,1.441c-5.305,0.673-10.239,0.621-15.545,0.69
		c-1.792,0.023-1.791,2.737,0,2.782c9.563,0.239,19.466,2.831,29.049,3.711c10.651,0.979,21.33,1.653,31.968,2.777
		c9.825,1.037,19.535,2.803,29.4,3.46c10.672,0.71,21.248,0.834,31.94,0.897c21.442,0.126,43.012-2.73,64.437-1.082
		c19.579,1.506,40.461,6.111,59.261-1.217C390.044,158.616,390.918,154.336,387.724,153.887z"/>
	<path style="fill:#CCCCCC;" d="M442.187,155.079c-1.734-4.533-6.102-4.489-10.357-4.449c-6.326,0.058-12.446,1.146-18.771,1.179
		c-5.294,0.026-5.27,8.018,0,8.206c8.736,0.311,17.412-0.771,26.11-0.973C441.03,158.998,442.939,157.049,442.187,155.079z"/>
	<path style="fill:#CCCCCC;" d="M262.187,349.008c0.794-11.813-0.637-23.732-0.667-35.549c-0.053-21,1.692-45.508-10.825-63.563
		c-2.52-3.634-8.229-0.449-6.004,3.509c5.502,9.789,6.192,21.003,6.688,32.023c0.507,11.265-0.43,22.522-0.053,33.78
		c0.227,6.777,0.692,13.557,0.888,20.341c-0.233,2.95-0.469,5.899-0.671,8.844c-0.583,8.544-1.127,17.07-2.089,25.583
		c-0.42,3.722-0.463,7.958-1.884,11.483c-0.907,2.249-2.451,2.503-3.812,4.534c-0.892,1.33,0.583,3.074,2.041,2.656
		c2.441-0.7,4.764,1.01,7.309-0.547c2.94-1.797,4.138-5.483,4.993-8.568c0.023-0.079,0.037-0.164,0.058-0.243
		c0.197-0.364,0.343-0.79,0.407-1.295c0.038-0.297,0.076-0.593,0.114-0.89c0.857-3.879,1.284-7.907,1.508-11.96
		C261.004,362.45,261.735,355.74,262.187,349.008z"/>
	<path style="fill:#CCCCCC;" d="M102.769,295.957c-0.42-4.828-7.831-4.986-7.649,0c0.641,17.661,0.881,35.747-0.311,53.4
		c-0.065,0.963-0.127,1.927-0.186,2.892c-0.215-3.108-0.452-6.215-0.73-9.321c-1.036-11.599-2.045-23.2-3.613-34.742
		c-1.621-11.944-1.992-23.972-3.1-35.967c-0.381-4.115-6.676-4.27-6.537,0c0.366,11.258-0.063,22.543,0.768,33.778
		c0.91,12.304,1.691,24.61,2.353,36.929c0.646,12.017,0.629,24.038,1.167,36.055c0.506,11.325-0.404,24.214,3.81,34.959
		c1.91,4.871,6.442,2.769,7.577-0.173l0.173,0.173c0.939-2.676,1.183-5.411,1.15-8.167c0.794,0.243,1.805-0.093,1.989-1.015
		c3.585-17.934,4.119-37.158,4.974-55.404C105.431,331.651,104.301,313.585,102.769,295.957z"/>
	<path style="fill:#CCCCCC;" d="M466.987,442.208c-0.275-0.228-0.566-0.427-0.864-0.611c-0.432-2.502-1.065-4.968-1.589-7.235
		c-0.961-4.152-1.552-8.209-1.905-12.443c-0.202-2.427-0.381-3.837-2.06-5.732c-0.875-0.987-2.027-1.181-3.081-0.894
		c-0.07-0.756-0.155-1.508-0.222-2.267c-0.666-7.646-2.116-15.246-3.373-22.85c0.039-3.804,0.066-7.609,0.261-11.403
		c0.324-6.353,1.472-12.627,1.632-18.998c0.148-5.922-0.171-11.779,0.188-17.71c1.554-25.722,2.199-52.069,0.482-77.759
		c-0.082-1.222-1.23-1.635-2.063-1.268c-0.706-3.416-1.627-6.772-2.831-10.036c-1.682-4.561-9.002-2.659-7.376,2.033
		c5.537,15.972,4.15,34.056,2.405,50.606c-1.72,16.305-3.142,32.558-4.55,48.862c-0.163,1.883,2.643,2.518,3.499,0.947
		c0.331-0.608,0.627-1.241,0.906-1.886c-0.026,1.691-0.055,3.386-0.107,5.088c-0.198,6.358-1.374,12.636-1.542,19
		c-0.164,6.225,0.128,12.519,0.319,18.745c0.18,5.875-0.413,12.376,1.792,17.91c0.094,0.235,0.216,0.424,0.339,0.61
		c0.29,5.826,0.635,11.67,1.403,17.456c0.532,4.009,1.525,9.636,5.665,11.441c1.345,0.586,2.622,0.195,3.468-0.602
		c0.036,0.046,0.072,0.094,0.108,0.14c0.068-0.07,0.122-0.147,0.185-0.22c0.004,0.009,0.007,0.019,0.009,0.03
		c-1.283,2.085-1.309,5.153,0.489,6.93c0.056,0.131,0.112,0.263,0.179,0.42c0.237,0.406,0.544,0.782,0.876,1.132
		c0.557,2.993,1.08,7.64,4.383,7.247c2.975-0.354,4.067-4.881,4.565-8.088C470.153,448.085,469.495,444.286,466.987,442.208z"/>
</g>
<path d="M71.247,360.932c-0.019,5.554,0.348,10.2,1.703,15.54c1.352,5.329,0.271,11.58,0.292,17.036
	c0.025,6.6,0.045,13.2,0.072,19.801c0.02,5-0.917,10.557,2.338,14.664c0.301,0.381,1.076,0.379,1.377,0
	c3.062-3.863,2.313-8.781,2.337-13.5c0.033-6.6,0.051-13.2,0.074-19.8c0.019-5.363,0.836-11.132,0.252-16.464
	c-0.25-2.291-1.072-4.347-1.573-6.573c-0.775-3.447-0.466-7.205-0.43-10.705c0.139-13.027,0.305-26.056,0.094-39.082
	c-0.108-6.655-0.517-13.169-1.151-19.794c-0.555-5.813-2.034-11.413-2.599-17.181c-0.153-1.571-2.558-1.638-2.503,0
	c0.18,5.464,1.552,10.484,1.01,16.002c-0.652,6.632-1.073,13.162-1.181,19.821C71.139,334.107,71.292,347.52,71.247,360.932z"/>
<path d="M89.444,364.281c0.389,2.964,0.243,6.2,0.053,9.184c-0.373,5.899-0.409,11.786-0.484,17.702
	c-0.071,5.731,1.474,10.645,1.865,16.268c0.417,6.012-1.002,12.121-0.26,18.073c0.437,3.512,6.278,5.259,6.92,0.936
	c0.824-5.531,0.82-11.443,0.546-17.03c-0.273-5.544-2.211-10.679-2.35-16.207c-0.157-6.24-0.066-12.468-0.462-18.694
	c-0.386-6.055,0.751-11.557-0.712-17.519c-1.592-6.488-0.623-13.244-0.362-19.846c0.271-6.793,0.157-13.584-0.064-20.377
	c-0.21-6.492-0.871-12.958-1.346-19.434c-0.39-5.328-1.599-9.421-3.005-14.513c-0.355-1.287-2.189-0.73-1.967,0.542
	c2.045,11.734-0.481,23.824-0.865,35.709c-0.207,6.377,0.03,12.749-0.139,19.125c-0.157,5.912-0.857,12.134,0.318,17.991
	C87.687,358.966,89.073,361.455,89.444,364.281z"/>
<path d="M241.425,371.638c-0.775-3.447-0.468-7.205-0.43-10.705c0.139-13.027,0.305-26.056,0.094-39.082
	c-0.108-6.655-0.517-13.169-1.151-19.794c-0.555-5.813-2.034-11.413-2.599-17.181c-0.153-1.571-2.558-1.638-2.503,0
	c0.18,5.464,1.552,10.484,1.01,16.002c-0.652,6.632-1.073,13.162-1.181,19.821c-0.218,13.41-0.065,26.824-0.11,40.235
	c-0.019,5.554,0.348,10.2,1.703,15.54c1.352,5.329,0.271,11.58,0.292,17.036c0.025,6.6,0.045,13.2,0.072,19.801
	c0.02,5-0.917,10.557,2.338,14.664c0.301,0.381,1.076,0.379,1.377,0c3.062-3.863,2.313-8.781,2.337-13.5
	c0.033-6.6,0.05-13.2,0.074-19.8c0.019-5.363,0.836-11.132,0.252-16.464C242.746,375.92,241.925,373.863,241.425,371.638z"/>
<path d="M251.124,283.365c2.045,11.734-0.481,23.824-0.865,35.709c-0.207,6.377,0.03,12.749-0.139,19.125
	c-0.157,5.912-0.857,12.134,0.318,17.991c0.557,2.776,1.943,5.266,2.314,8.091c0.389,2.964,0.243,6.2,0.053,9.184
	c-0.373,5.899-0.409,11.786-0.484,17.702c-0.071,5.731,1.474,10.645,1.865,16.268c0.417,6.012-1.002,12.121-0.26,18.073
	c0.437,3.512,6.278,5.259,6.92,0.936c0.824-5.531,0.82-11.443,0.546-17.03c-0.272-5.544-2.211-10.679-2.349-16.207
	c-0.157-6.24-0.066-12.468-0.462-18.694c-0.386-6.055,0.751-11.557-0.712-17.519c-1.592-6.488-0.623-13.244-0.362-19.846
	c0.271-6.793,0.157-13.584-0.064-20.377c-0.21-6.492-0.871-12.958-1.346-19.434c-0.39-5.328-1.599-9.421-3.005-14.513
	C252.736,281.536,250.902,282.092,251.124,283.365z"/>
<path d="M509.006,470.737c-2.892-7.717-13.269-9.218-19.077-4.118c-2.014-0.368-4.034-0.672-6.059-0.954
	c0.142-0.63,0.279-1.26,0.415-1.884c1.031-4.733,2.318-10.118,1.113-14.926c-1.167-4.655-5.437-7.457-10.004-8.076
	c1.643-6.396,0.737-14.02,0.436-20.861c-0.333-7.549,0.204-15.114,0.183-22.666c-0.023-7.949-2.238-15.637-2.17-23.498
	c0.077-8.828-0.529-16.811-2.111-25.51c-1.611-8.857-1.73-17.501-1.561-26.477c0.17-8.921,0.351-17.858-0.331-26.765
	c-0.286-3.731-1.314-7.421-0.929-11.154c0.122-1.182,0.244-2.313,0.331-3.429c1.827-0.045,3.527-0.409,4.967-1.186
	c7.628-4.116,10.722-14.446,10.241-22.574c-0.58-9.84-6.271-16.267-15.914-18.269c-3.993-0.828-8.015-1.417-12.011-2.173
	c5.944,0.329,12.074,0.395,17.382-2.251c6.452-3.217,10.264-8.798,9.998-16.06c-0.119-3.24-1.13-6.385-0.525-9.639
	c0.726-3.912,2.791-7.246,3.242-11.296c0.915-8.232,0.26-17.257-0.291-25.512c-0.503-7.565-1.827-14.834-4.753-21.858
	c-1.505-3.61-3.629-6.612-6.636-8.847c0.711-2.003,0.625-4.214-0.769-6.037c-6.569-8.588-11.092-17.287-20.891-22.776
	c-9.667-5.416-19.037-11.337-28.822-16.549c-4.861-2.59-9.521-5.505-14.337-8.173c-4.413-2.444-9.277-3.888-13.67-6.307
	c-9.352-5.15-17.036-12.633-25.815-18.563c-9.262-6.256-19.093-11.856-27.97-18.662c-8.5-6.516-16.789-12.831-25.628-18.888
	c-9.384-6.43-20.22-10.88-30.592-15.504c-4.662-2.078-9.89-2.592-14.495-4.575c-3.639-1.567-6.154-4.514-10.368-4.709
	c-5.443-0.254-7.622,4.168-11.943,6.454c-1.46,0.773-2.96,1.492-4.478,2.184c-0.768-0.639-1.822-0.865-2.8-0.163
	c-6.408,4.607-14.26,6.202-21.384,9.38c-7.793,3.474-15.583,6.998-23.417,10.369c-7.736,3.329-14.819,8.051-22.399,11.737
	c-8.021,3.899-14.452,10.784-22.543,14.255c-7.603,3.263-14.109,8.013-21.886,10.984c-8.605,3.288-15.571,9.099-23.881,13.002
	C89.194,86.507,71.671,95.036,54.95,105.12c-4.114,2.48-8.257,5.407-11.782,8.677c-3.335,3.093-5.52,7.182-8.819,10.297
	c-5.782,5.462-12.419,9.116-11.116,18.201c0.139,0.967,0.558,1.806,1.148,2.518c-1.311,0.58-2.55,1.271-3.666,2.05
	c-4.216,2.943-6.169,10.756-7.555,15.425c-1.078,3.629-1.954,7.573-1.957,11.376c-0.004,3.809,1.613,7.364,1.719,11.118
	c0.205,7.3-4.455,13.635-3.206,21.101c0.709,4.235,1.849,8.415,2.393,12.679c0.436,3.418,0.423,6.894,1.145,10.279
	c1.43,6.693,5.896,12.16,12.735,13.692c1.192,0.267,2.329,0.332,3.449,0.3c-5.533,3.921-9.834,9.616-8.275,16.826
	c0.586,2.713,2.185,5.157,3.119,7.764c1.053,2.937,1.646,6.045,2.897,8.917c1.602,3.673,4.404,6.392,8.781,5.515
	c1.994-0.4,3.354-1.359,5.464-1.497c2.934-0.191,5.529-0.047,8.264-1.118c-0.128,1.724-0.196,3.458-0.293,5.163
	c-0.437,7.59-1.584,15.81-0.668,23.388c1.887,15.618,0.7,31.553,0.521,47.326c-0.19,16.766-0.35,33.528-0.388,50.294
	c-0.024,10.384-1.724,21.091,0.005,31.394c0.396,2.363,1.049,4.451,1.91,6.316c-0.576,0.11-1.137,0.22-1.669,0.315
	c-4.241,0.754-9.441,1.465-12.038,5.321c-3.461,5.139-3.602,13.225-2.752,20.023c-7.763-1.055-18.676-4.789-25.122,1.122
	c-2.435,2.232-3.07,5.134-3.467,8.273c-0.515,4.077-2.147,7.744-2.88,11.779c-1.342,7.387,0.566,14.905,8.409,17.467
	c10.286,3.358,21.746-0.763,32.304,1.275c5.016,0.967,9.654,1.355,14.777,1.237c2.835-0.066,5.724-0.184,8.546,0.173
	c2.908,0.368,5.694,1.511,8.639,1.682c4.709,0.273,9.044-1.968,13.799-1.997c5.594-0.033,11.187,0.29,16.783,0.292
	c11.771,0.005,23.502,0.045,35.263,0.504c10.861,0.424,20.919-1.062,31.654-1.973c5.321-0.451,9.878,0.407,15.083,1.233
	c6.073,0.964,12.097,0.008,18.188,0.339c5.402,0.294,10.657,1.691,16.086,1.803c5.891,0.121,11.764-0.583,17.62-1.13
	c11.795-1.101,23.563-0.263,35.377-0.743c6.191-0.252,12.204-1.397,18.35-1.957c6.009-0.548,12.076,0.027,18.052,0.668
	c5.624,0.604,11.251,1.44,16.917,1.491c6.39,0.057,12.712-0.901,19.059-1.492c11.928-1.11,24.077-0.51,36.049-0.513
	c5.893-0.001,11.828,0.273,17.716,0.036c5.751-0.231,11.354-1.695,17.108-1.821c12.293-0.268,24.609,0.16,36.906-0.04
	c5.945-0.097,12.237,0.539,18.121-0.006c2.399-0.223,4.668-0.922,7.011-1.41c2.689-0.56,4.04,0.005,6.6,0.752
	c10.347,3.018,15.223-3.49,18.092-12.628c1.222-3.892,2.056-7.651,2.821-11.643C508.863,477.963,510.355,474.336,509.006,470.737z
	 M476.426,452.032c0.954,2.681-0.65,7.145-1.207,9.79c-0.227,1.082-0.333,1.913-0.469,2.58c-0.446-0.068-0.894-0.131-1.34-0.203
	c-7.45-1.201-14.456-0.147-21.865,0.754c-0.955,0.116-1.914,0.22-2.874,0.312c-8.221-0.076-16.549,0.239-24.664,0.452
	c-0.614,0.017-1.214,0.053-1.81,0.1c-6.251-0.141-12.487-0.338-18.626-0.309c-1.208,0.006-2.416,0.019-3.622,0.033
	c-0.496-4.483-0.5-9.604,1.332-12.058c1.728-2.315,6.389-2.199,9.074-3.069c0.949-0.307,1.899-0.7,2.839-1.129
	c3.512,3.214,8.238,5.177,13.91,6.255c6.374,1.212,11.975,1.282,18.276-0.068c6.774-1.45,13.258-0.051,19.873-2.854
	c0.24-0.101,0.463-0.212,0.692-0.319c0.428,0.047,0.884,0.032,1.371-0.074C470.181,451.601,475.073,448.23,476.426,452.032z
	 M391.953,465.583c-3.886-0.034-7.767-0.196-11.643-0.687c-7.081-0.897-13.761-1.703-20.844-0.334
	c-3.373,0.653-6.31,1.416-9.768,0.891c-3.635-0.551-7.111-1.467-10.805-1.658c-6.834-0.354-14.235-0.303-20.981,0.891
	c-9.45,1.672-19.122,1.512-28.788,1.424c0.182-0.779,0.35-1.559,0.519-2.33c1.031-4.733,2.318-10.118,1.113-14.926
	c-1.167-4.655-5.437-7.457-10.004-8.076c1.643-6.396,0.737-14.02,0.436-20.861c-0.334-7.549,0.204-15.114,0.183-22.666
	c-0.023-7.949-2.238-15.637-2.17-23.498c0.077-8.828-0.529-16.811-2.111-25.51c-1.611-8.857-1.73-17.501-1.561-26.477
	c0.17-8.921,0.351-17.858-0.331-26.765c-0.286-3.731-1.314-7.421-0.929-11.154c0.121-1.182,0.244-2.313,0.331-3.429
	c1.828-0.045,3.527-0.409,4.967-1.186c7.628-4.116,10.722-14.446,10.241-22.574c-0.39-6.624-3.107-11.693-7.776-14.915
	c11.714,0.082,23.427,0.203,35.137,0.298c22.217,0.18,44.671,1.498,66.749-0.998c2.441-0.275,4.883-0.453,7.324-0.579
	c-7.17,3.809-14.044,10.367-12.135,19.195c0.586,2.713,2.185,5.157,3.119,7.764c1.053,2.937,1.646,6.045,2.897,8.917
	c1.602,3.673,4.403,6.392,8.781,5.515c1.994-0.4,3.354-1.359,5.464-1.497c2.934-0.191,5.529-0.047,8.264-1.118
	c-0.128,1.724-0.196,3.458-0.294,5.163c-0.437,7.59-1.584,15.81-0.668,23.388c1.887,15.618,0.7,31.553,0.522,47.326
	c-0.19,16.766-0.35,33.528-0.388,50.294c-0.024,10.384-1.724,21.091,0.005,31.394c0.398,2.363,1.049,4.451,1.91,6.316
	c-0.576,0.11-1.137,0.22-1.669,0.315c-4.241,0.754-9.441,1.465-12.038,5.321C392.084,453.108,391.538,459.575,391.953,465.583z
	 M197.512,467.86c-6.626,0.287-13.349,1.124-19.921,0.44c-3.054-0.318-5.876-1.454-8.898-1.916
	c-3.501-0.535-7.076-0.318-10.604-0.269c-8.65,0.119-17.3,0.036-25.95,0.164c-2.126,0.032-4.252,0.058-6.38,0.082
	c0.207-0.86,0.392-1.728,0.578-2.581c1.031-4.733,2.318-10.118,1.113-14.926c-1.167-4.655-5.437-7.457-10.004-8.076
	c1.643-6.396,0.737-14.02,0.436-20.861c-0.334-7.549,0.204-15.114,0.183-22.666c-0.023-7.949-2.238-15.637-2.17-23.498
	c0.077-8.828-0.529-16.811-2.111-25.51c-1.611-8.857-1.732-17.501-1.561-26.477c0.17-8.921,0.351-17.858-0.331-26.765
	c-0.286-3.731-1.314-7.421-0.929-11.154c0.122-1.182,0.244-2.313,0.331-3.429c1.827-0.045,3.527-0.409,4.967-1.186
	c7.628-4.116,10.722-14.446,10.241-22.574c-0.463-7.846-4.185-13.514-10.559-16.506c1.936,0.282,3.888,0.693,6.055,0.976
	c4.599,0.599,9.389,0.231,14.026,0.241c10.056,0.023,20.112,0.013,30.168,0.015c9.008,0.002,17.484,0.574,26.377,1.57
	c-5.45,3.917-9.644,9.569-8.101,16.703c0.586,2.713,2.185,5.157,3.119,7.764c1.053,2.937,1.646,6.045,2.897,8.917
	c1.602,3.673,4.403,6.392,8.781,5.515c1.994-0.4,3.354-1.359,5.464-1.497c2.934-0.191,5.529-0.047,8.264-1.118
	c-0.128,1.724-0.196,3.458-0.294,5.163c-0.437,7.59-1.584,15.81-0.668,23.388c1.887,15.618,0.7,31.553,0.521,47.326
	c-0.19,16.766-0.35,33.528-0.388,50.294c-0.024,10.384-1.724,21.091,0.005,31.394c0.398,2.363,1.049,4.451,1.91,6.316
	c-0.576,0.11-1.137,0.22-1.669,0.315c-4.241,0.754-9.441,1.465-12.038,5.321C197.07,453.665,196.789,461.265,197.512,467.86z
	 M257.707,259.13c-9.682,5.736-1.984,15.107,7.545,19.237c-0.112,2.204-0.789,4.33-0.93,6.588c-0.185,2.971,0.421,5.938,0.455,8.911
	c0.083,7.481-0.552,15.017-0.662,22.506c-0.095,6.469-0.381,12.945-0.122,19.413c0.285,7.096,1.8,13.948,2.91,20.938
	c1.142,7.186,0.203,14.205,0.815,21.382c0.652,7.629,2.082,14.721,1.984,22.46c-0.082,6.454-0.39,12.898-0.211,19.352
	c0.139,5.008,2.262,15.59-1.107,19.799c-3.488,4.359-11.913,2.4-16.503,2.888c-2.472,0.263-4.772,1.202-7.21,1.511
	c-3.131,0.396-6.772-0.184-9.817-0.801c-4.389-0.889-8.279-1.513-9.878-5.976c-1.51-4.217-1.27-9.09-1.131-13.488
	c0.85-26.807,0.342-53.609,0.038-80.433c-0.095-8.315,0.197-16.714-0.242-25.017c-0.408-7.727-2.48-15.07-2.804-22.848
	c-0.287-6.89-0.493-13.847-1.113-20.71c-0.027-0.305-0.065-0.625-0.098-0.94c1.558-2.103,2.744-4.521,3.582-6.909
	c2.063-5.883,0.375-20.154-9-17.823c-1.505,0.374-2.04,2.872-0.465,3.559c2.802,1.222,2.274,7.395,1.542,9.952
	c-0.938-0.647-2.057,0.608-1.279,1.55c0.167,0.203,0.312,0.411,0.439,0.623c-1.595,3.488-4.03,5.791-8.151,6.28
	c-3.355,0.399-5.465,1.087-8.449,2.255c-0.293-0.807-0.586-1.614-0.883-2.419c-0.63-1.868-1.097-3.79-1.761-5.646
	c-1.721-4.81-5.044-8.237-1.805-13.371c3.023-4.792,9.057-6.378,14.26-7.685c0.699-0.176,1.397-0.324,2.095-0.46
	c5.992-0.055,11.994-0.401,17.996-0.806c2.753,0.072,5.518,0.134,8.301,0.05c5.026-0.154,9.491-1.105,14.476,0.045
	c4.661,1.075,9.219,2.45,13.933,3.347c4,0.761,9.736,0.807,12.866,3.698c2.476,2.286,2.771,6.05,2.514,9.254
	c-0.392,4.875-2.426,12.002-8.384,10.562c-2.54-0.614-5.214-1.925-7.192-3.654c-0.904-0.79-1.427-1.946-2.25-2.712
	c-0.1-0.093-0.186-0.169-0.271-0.242c0.034-0.024,0.066-0.055,0.095-0.097C263.539,260.692,260.21,257.646,257.707,259.13z
	 M206.64,453.482c1.728-2.315,6.389-2.199,9.075-3.069c0.949-0.307,1.899-0.7,2.839-1.129c3.512,3.214,8.238,5.177,13.91,6.255
	c6.374,1.212,11.975,1.282,18.276-0.068c6.774-1.45,13.258-0.051,19.873-2.854c0.24-0.101,0.463-0.212,0.692-0.319
	c0.428,0.047,0.884,0.032,1.371-0.074c2.865-0.624,7.758-3.995,9.111-0.192c0.954,2.681-0.65,7.145-1.207,9.79
	c-0.479,2.282-0.42,3.453-1.244,4.3c-2.07,0.039-4.136,0.107-6.196,0.231c-1.519,0.091-3.035,0.15-4.553,0.23
	c-1.956-0.479-3.86-0.965-5.487-1.053c-11.095-0.596-22.615-0.107-33.732,0.185c-4.241,0.112-7.974,1.027-12.109,1.624
	c-2.694,0.389-5.401-0.102-8.082,0.383c-0.009,0.001-0.019,0.006-0.028,0.007c-1.184,0.004-2.369,0.011-3.553,0.017
	C204.866,462.87,204.499,456.353,206.64,453.482z M459.091,246.445c4,0.761,9.736,0.807,12.866,3.698
	c2.476,2.286,2.771,6.05,2.514,9.254c-0.392,4.875-2.426,12.002-8.384,10.562c-2.54-0.614-5.214-1.925-7.192-3.654
	c-0.904-0.79-1.427-1.946-2.251-2.712c-0.101-0.093-0.186-0.169-0.271-0.242c0.034-0.024,0.066-0.055,0.095-0.097
	c1.71-2.561-1.62-5.605-4.123-4.123c-9.682,5.736-1.984,15.107,7.545,19.237c-0.112,2.204-0.789,4.33-0.93,6.588
	c-0.185,2.971,0.421,5.938,0.455,8.911c0.083,7.481-0.552,15.017-0.662,22.506c-0.095,6.469-0.381,12.945-0.121,19.413
	c0.285,7.096,1.8,13.948,2.91,20.938c1.142,7.186,0.203,14.205,0.815,21.382c0.652,7.629,2.082,14.721,1.984,22.46
	c-0.082,6.454-0.391,12.898-0.211,19.352c0.139,5.008,2.262,15.59-1.107,19.799c-3.488,4.359-11.913,2.4-16.503,2.888
	c-2.472,0.263-4.773,1.202-7.21,1.511c-3.131,0.396-6.773-0.184-9.817-0.801c-4.389-0.889-8.279-1.513-9.878-5.976
	c-1.511-4.217-1.27-9.09-1.131-13.488c0.85-26.807,0.343-53.609,0.038-80.433c-0.095-8.315,0.197-16.714-0.242-25.017
	c-0.408-7.727-2.48-15.07-2.805-22.848c-0.287-6.89-0.493-13.847-1.113-20.71c-0.027-0.305-0.065-0.625-0.099-0.94
	c1.558-2.103,2.744-4.521,3.582-6.909c2.063-5.883,0.375-20.154-8.999-17.823c-1.505,0.374-2.04,2.872-0.465,3.559
	c2.802,1.222,2.275,7.395,1.542,9.952c-0.938-0.647-2.057,0.608-1.279,1.55c0.167,0.203,0.312,0.411,0.439,0.623
	c-1.595,3.488-4.03,5.791-8.151,6.28c-3.355,0.399-5.465,1.087-8.449,2.255c-0.293-0.807-0.586-1.614-0.883-2.419
	c-0.63-1.868-1.097-3.79-1.761-5.646c-1.721-4.81-5.044-8.237-1.805-13.371c3.023-4.792,9.057-6.378,14.26-7.685
	c9.446-2.372,18.815-0.923,28.39-1.216c5.026-0.154,9.491-1.105,14.476,0.045C449.818,244.175,454.377,245.549,459.091,246.445z
	 M44.275,135.41c3.85-3.526,6.258-8.27,10.134-11.775c7.994-7.227,18.811-12.043,28.061-17.471
	c10.449-6.132,21.584-11.042,32.365-16.547c4.98-2.543,9.082-5.788,13.716-8.836c4.605-3.028,9.937-4.391,14.819-6.863
	c4.415-2.236,8.05-5.65,12.542-7.746c4.573-2.134,8.235-4.549,12.235-7.659c8.682-6.75,18.536-11.56,27.931-17.234
	c2.231-1.348,4.495-2.642,6.774-3.908c0.243-0.017,0.494-0.085,0.743-0.235c9.32-5.564,19.024-10.203,29.127-14.152
	c4.62-1.805,9.2-3.699,13.8-5.551c2.076-0.836,4.174-1.612,6.223-2.514c1.886-0.831,3.901-2.67,5.763-3.323
	c3.308-1.158,5.608,3.01,8.606,4.6c4.594,2.435,9.891,3.209,14.524,5.608c9.173,4.749,18.932,8.665,27.413,14.596
	c16.763,11.72,32.503,24.618,49.618,35.908c8.068,5.322,15.253,11.712,23.297,17.103c7.952,5.33,16.517,8.875,24.721,13.816
	c10.025,6.037,20.258,11.963,30.414,17.762c4.293,2.451,9.185,4.193,13.018,7.383c1.105,0.92,2.091,1.959,3.005,3.067
	c-0.877-0.053-1.745-0.097-2.583-0.101c-4.491-0.021-8.234,0.687-12.269,1.493c-0.19-0.028-0.363-0.078-0.564-0.094
	c-6.154-0.484-11.521-2.164-17.547-3.157c-6.668-1.099-13.357-1.597-20.113-1.418c-13.199,0.35-26.317,2.687-39.501,1.036
	c-13.762-1.723-27.791-0.939-41.644-0.891c-13.735,0.046-27.482,0.263-41.215,0.03c-6.404-0.109-12.245,0.681-18.529,1.708
	c-6.636,1.085-13.391,0.039-20.075,0.072c-13.593,0.068-26.971,3.328-40.642,3.126c-13.263-0.196-26.383-2.111-39.699-2.07
	c-6.399,0.02-12.808-0.087-19.206,0.013c-6.866,0.107-13.59,1.561-20.441,1.8c-7.189,0.252-14.371-0.633-21.562-0.182
	c-7.362,0.462-14.68,1.81-22.026,2.507c-7.452,0.707-14.917,1.105-22.404,1.101c-3.191-0.001-6.574,0.057-9.842-0.169
	C43.603,135.967,43.953,135.703,44.275,135.41z M25.53,228.307c-1.651-2.866-1.751-6.619-2.259-9.812
	c-0.662-4.169-1.918-8.193-2.814-12.315c-1.601-7.364,2.402-13.958,2.078-21.4c-0.18-4.131-2.193-7.917-2.185-12.059
	c0.008-4.614,1.429-9.439,2.767-13.821c0.451-1.478,1.721-3.724,1.754-5.256c0.212-0.453,0.342-0.776,0.405-0.992
	c0.096-0.076,0.205-0.137,0.299-0.215c3.109-1.57,6.007-3.108,9.413-3.334c1.098,1.607,3.825,1.577,4.586-0.096
	c2.155-0.042,4.322-0.274,6.459-0.367c7.246-0.315,14.476-0.198,21.718-0.749c13.625-1.036,26.971-3.823,40.672-3.384
	c12.729,0.407,25.175-1.486,37.893-1.44c13.808,0.05,27.474-0.077,41.202,1.654c13.596,1.714,27.051,0.731,40.628-0.692
	c6.352-0.666,12.45-0.666,18.824-0.288c6.937,0.409,12.89-0.338,19.692-1.355c6.506-0.972,13.32-0.171,19.87-0.135
	c6.937,0.038,13.874,0.046,20.812,0.072c14.247,0.056,28.546-0.228,42.785,0.189c7.417,0.217,14.628,1.939,22.076,1.812
	c7.434-0.127,14.833-0.953,22.248-1.411c1.17-0.072,2.342-0.131,3.513-0.182c0.14,1.627,1.16,3.209,3.009,3.839
	c5.4,1.84,11.409,3.05,17.156,2.546c3.153-0.277,6.186-1.48,9.348-1.564c3.058-0.082,5.928,0.668,9.016,0.299
	c2.526-0.301,4.917-1.309,7.427-1.59c2.753-0.31,5.76,0.078,8.513,0.174c5.078,0.178,10.099,1.014,15.093,0.112
	c2.185,1.022,4.052,2.631,5.273,5.469c5.192,12.069,1.626,27.506,1.403,40.225c-0.11,6.27-3.813,11.453-4.034,17.717
	c-0.201,5.643,2.915,10.556-4.051,12.645c-6.12,1.835-13.732,0.793-20.073,1.084c-6.1,0.28-15.517-0.33-20.559,3.356
	c-0.77,0.563-1.225,1.283-1.387,2.034c-9.954-0.007-19.914-0.307-29.894-0.15c-8.087,0.128-15.909,1.939-23.945,2.211
	c-9.483,0.32-19.012,0.157-28.501,0.234c-37.9,0.307-76.017-0.695-113.824,2.136c-8.456,0.634-16.929,1.203-25.414,0.958
	c-9.069-0.262-17.854-2.24-26.94-2.236c-8.752,0.004-17.503,0-26.255,0.002c-8.691,0.002-18.217,1.062-26.834-0.204
	c-3.64-0.535-7.043-1.879-10.785-1.697c-4.143,0.201-8.008,1.811-12.183,1.993c-9.782,0.424-19.706-0.071-29.501-0.068
	c-8.377,0.002-16.75,0.007-25.125-0.101C39.356,232.089,28.823,234.024,25.53,228.307z M42.985,271.136
	c-3.355,0.399-5.465,1.087-8.449,2.255c-0.293-0.807-0.586-1.614-0.883-2.419c-0.63-1.868-1.097-3.79-1.761-5.646
	c-1.721-4.81-5.044-8.237-1.805-13.371c3.023-4.792,9.057-6.378,14.26-7.685c9.446-2.372,18.816-0.923,28.39-1.216
	c5.026-0.154,9.491-1.105,14.476,0.045c4.661,1.075,9.219,2.45,13.933,3.347c4,0.761,9.736,0.807,12.866,3.698
	c2.476,2.286,2.771,6.05,2.514,9.254c-0.392,4.875-2.425,12.002-8.383,10.562c-2.54-0.614-5.214-1.925-7.192-3.654
	c-0.904-0.79-1.427-1.946-2.25-2.712c-0.1-0.093-0.186-0.169-0.271-0.242c0.034-0.024,0.066-0.055,0.095-0.097
	c1.71-2.561-1.62-5.605-4.123-4.123c-9.682,5.736-1.984,15.107,7.545,19.237c-0.112,2.204-0.789,4.33-0.93,6.588
	c-0.185,2.971,0.421,5.938,0.455,8.911c0.083,7.481-0.552,15.017-0.662,22.506c-0.095,6.469-0.381,12.945-0.122,19.413
	c0.285,7.096,1.8,13.948,2.91,20.938c1.142,7.186,0.203,14.205,0.815,21.382c0.652,7.629,2.082,14.721,1.984,22.46
	c-0.082,6.454-0.39,12.898-0.211,19.352c0.139,5.008,2.262,15.59-1.107,19.799c-3.488,4.359-11.913,2.4-16.503,2.888
	c-2.472,0.263-4.772,1.202-7.21,1.511c-3.131,0.396-6.773-0.184-9.817-0.801c-4.389-0.889-8.279-1.513-9.878-5.976
	c-1.511-4.217-1.27-9.09-1.131-13.488c0.85-26.807,0.343-53.609,0.038-80.433c-0.095-8.315,0.197-16.714-0.242-25.017
	c-0.408-7.727-2.48-15.07-2.804-22.848c-0.287-6.89-0.494-13.847-1.113-20.71c-0.027-0.305-0.065-0.625-0.099-0.94
	c1.558-2.103,2.744-4.521,3.581-6.909c2.063-5.883,0.376-20.154-9-17.823c-1.505,0.374-2.04,2.872-0.465,3.559
	c2.802,1.222,2.275,7.395,1.542,9.952c-0.939-0.647-2.057,0.608-1.279,1.55c0.167,0.203,0.312,0.411,0.439,0.623
	C49.541,268.343,47.105,270.646,42.985,271.136z M43.335,453.482c1.728-2.315,6.389-2.199,9.075-3.069
	c0.949-0.307,1.899-0.7,2.839-1.129c3.512,3.214,8.238,5.177,13.91,6.255c6.374,1.212,11.975,1.282,18.276-0.068
	c6.774-1.45,13.258-0.051,19.873-2.854c0.24-0.101,0.463-0.212,0.692-0.319c0.428,0.047,0.884,0.032,1.371-0.074
	c2.865-0.624,7.758-3.995,9.111-0.192c0.954,2.681-0.65,7.145-1.207,9.79c-0.546,2.6-0.394,3.758-1.647,4.638
	c-3.481,0.031-6.962,0.062-10.443,0.099c-1.921-0.471-3.788-0.942-5.388-1.029c-11.094-0.596-22.615-0.107-33.732,0.185
	c-4.241,0.112-7.974,1.027-12.109,1.624c-2.695,0.389-5.401-0.102-8.082,0.383c-1.087,0.196-2.253,0.769-3.409,1.117
	C41.63,463.894,41.029,456.572,43.335,453.482z M496.327,477.628c-0.595,2.878-0.961,5.709-1.825,8.531
	c-0.831,2.713-1.997,5.378-2.834,8.056c-0.39-0.115-0.777-0.255-1.095-0.399c-1.783-0.801-3.822-1.371-5.767-1.564
	c-3.49-0.347-6.734,0.771-10.118,1.461c-4.525,0.922-9.401,0.027-14.028,0.151c-9.759,0.26-19.528,0.173-29.291,0.193
	c-4.961,0.011-9.994-0.262-14.948,0.032c-5.005,0.298-9.889,1.554-14.904,1.751c-10.172,0.398-20.448-0.05-30.629-0.055
	c-10.031-0.005-19.856,0.169-29.837,1.203c-10.379,1.076-20.073,0.242-30.397-0.849c-10.198-1.078-19.392,0.165-29.514,1.031
	c-10.013,0.856-20.04,0.208-30.067,0.376c-9.943,0.167-19.839,2.261-29.798,1.837c-4.313-0.184-8.525-1.173-12.812-1.592
	c-5.176-0.507-10.337,0.203-15.518-0.013c-3.956-0.165-7.706-1.571-11.649-1.904c-4.569-0.385-9.313,0.198-13.835,0.846
	c-9.147,1.311-17.907,1.665-27.143,1.3c-9.851-0.389-19.673-0.44-29.532-0.437c-8.995,0.004-18.421-1.099-27.352,0.031
	c-2.046,0.259-3.895,1.211-5.881,1.512c-2.677,0.407-5.515-0.83-8.165-1.211c-5.074-0.73-10.101-0.345-15.2-0.333
	c-4.778,0.011-9.33-1.506-14.077-1.944c-5.453-0.502-10.902,0.117-16.351,0.382c-3.346,0.163-8.991,1.676-10.07-2.021
	c-0.954-3.27,0.463-7.381,1.043-10.587c0.296-1.631,0.02-3.734,0.527-5.264c0.748-2.254,2.217-2.161,4.655-2.414
	c3.971-0.412,7.962-0.608,11.949-0.845c1.218,0.021,2.434,0.015,3.652-0.004c0.515,0.98,1.51,1.816,2.537,2.032
	c3.292,0.694,5.259-0.243,8.459-0.876c3.185-0.629,6.452-0.001,9.679-0.596c0.134-0.025,0.268-0.039,0.402-0.063
	c5.585,0.318,11.176,0.576,16.764,0.839c16.014,0.754,32.086,0.679,48.115,0.916c7.904,0.117,15.807,0.217,23.713,0.247
	c8.018,0.03,16.699-1.011,24.501,0.907c6.491,1.596,12.823,1.76,19.492,1.46c8.156-0.366,16.281-0.367,24.446-0.337
	c16.14,0.058,32.321,0.487,48.445-0.325c7.401-0.373,14.796-0.9,22.206-1.113c7.865-0.226,15.717,0.515,23.572,0.267
	c6.561-0.207,12.853-2.007,19.406-2.115c3.521-0.058,7.072-0.281,10.591-0.121c4.168,0.19,8.118,1.443,12.26,1.83
	c6.434,0.601,12.432-2.01,18.843-1.821c7.731,0.229,15.254,1.93,23.02,1.923c17.683-0.017,35.553,0.728,53.216,0.032
	c7.026-0.277,13.969-1.98,20.976-1.921c1.679,0.255,3.418,0.425,5.137,0.399c6.787,1.028,12.78,1.349,19.177,0.335
	c1.784,0.904,4.054,0.903,6.144-0.662C496.478,476.822,496.368,477.43,496.327,477.628z"/>
<path d="M436.065,371.638c-0.775-3.447-0.468-7.205-0.43-10.705c0.139-13.027,0.305-26.056,0.094-39.082
	c-0.108-6.655-0.517-13.169-1.151-19.794c-0.555-5.813-2.034-11.413-2.599-17.181c-0.153-1.571-2.558-1.638-2.503,0
	c0.18,5.464,1.552,10.484,1.01,16.002c-0.652,6.632-1.073,13.162-1.181,19.821c-0.218,13.41-0.065,26.824-0.11,40.235
	c-0.019,5.554,0.348,10.2,1.703,15.54c1.352,5.329,0.271,11.58,0.292,17.036c0.026,6.6,0.045,13.2,0.072,19.801
	c0.02,5-0.917,10.557,2.338,14.664c0.301,0.381,1.076,0.379,1.377,0c3.062-3.863,2.313-8.781,2.337-13.5
	c0.033-6.6,0.05-13.2,0.074-19.8c0.019-5.363,0.836-11.132,0.252-16.464C437.386,375.92,436.565,373.863,436.065,371.638z"/>
<path d="M444.898,319.073c-0.207,6.377,0.03,12.749-0.139,19.125c-0.157,5.912-0.857,12.134,0.318,17.991
	c0.557,2.776,1.943,5.266,2.314,8.091c0.389,2.964,0.243,6.2,0.053,9.184c-0.373,5.899-0.409,11.786-0.484,17.702
	c-0.071,5.731,1.474,10.645,1.865,16.268c0.417,6.012-1.002,12.121-0.26,18.073c0.437,3.512,6.277,5.259,6.92,0.936
	c0.824-5.531,0.82-11.443,0.546-17.03c-0.272-5.544-2.211-10.679-2.349-16.207c-0.157-6.24-0.066-12.468-0.462-18.694
	c-0.386-6.055,0.751-11.557-0.712-17.519c-1.592-6.488-0.623-13.244-0.362-19.846c0.269-6.793,0.157-13.584-0.064-20.377
	c-0.21-6.492-0.871-12.958-1.346-19.434c-0.391-5.328-1.599-9.421-3.005-14.513c-0.355-1.287-2.189-0.73-1.967,0.542
	C447.809,295.099,445.283,307.188,444.898,319.073z"/>
<path d="M114.331,116.562c0.39-0.033,0.782-0.065,1.173-0.099c1.352-0.114,2.37-0.729,3.053-1.58
	c8.043-3.837,17.126-2.983,25.843-3.869c5.939-0.604,11.492-1.849,17.521-1.827c6.05,0.023,12.096,0.165,18.147,0.165
	c10.575-0.001,21.156,1.252,31.704,0.862c5.99-0.222,11.976-0.679,17.975-0.624c5.985,0.053,11.734,1.116,17.659,1.738
	c11.313,1.186,22.718-1.154,33.974,0.066c5.01,0.544,9.779,1.548,14.838,1.618c6.148,0.085,12.315-0.493,18.455-0.027
	c5.427,0.412,10.718,1.652,16.18,1.729c5.494,0.077,10.97-0.457,16.464-0.038c11.532,0.878,22.782,1.697,34.365,1.918
	c4.086,0.078,6.117-6.154,2.174-8.028c-9.674-4.598-20.183-7.055-29.944-11.561c-9.562-4.414-19.307-8.74-27.341-15.712
	c-7.964-6.912-15.481-12.785-24.818-17.827c-4.052-2.189-8.03-4.302-12.37-5.834c-5.039-1.777-8.74-6.269-13.424-8.893
	c-4.33-2.426-9.66-4.076-13.136-7.727c-1.976-2.077-3.352-4.804-6.081-6.026c-2.472-1.105-5.023-0.641-7.286,0.724
	c-1.679,1.012-2.992,2.52-4.595,3.634c-1.952,1.357-4.223,2.185-6.229,3.452c-1.794,1.133-3.315,2.6-5.065,3.79
	c-2.304,1.564-4.538,1.97-7.053,2.899c-4.608,1.702-7.748,5.712-11.929,8.142c-10.287,5.975-20.859,11.48-31.22,17.33
	c-5.656,3.194-11.282,6.455-17.154,9.244c-5.545,2.634-11.364,4.333-16.688,7.425c-4.791,2.782-9.908,4.902-14.651,7.752
	c-2.18,1.31-4.289,2.717-6.392,4.134c-5.706,0.728-11.313,2.122-16.295,5.108C108.761,110.661,109.941,116.931,114.331,116.562z
	 M175.367,87.076c10.023-5.106,19.779-10.785,29.68-16.124c4.708-2.539,9.603-4.889,14.177-7.66
	c1.812-1.099,3.367-2.371,5.007-3.697c2.574-2.082,4.834-2.971,7.961-4.06c7.343-2.559,13.16-8.769,19.947-12.372
	c2.034-1.08,1.765-0.964,3.272,0.856c0.947,1.143,1.793,2.365,2.867,3.398c3.346,3.215,7.904,4.927,11.925,7.101
	c4.204,2.273,7.303,5.423,11.187,8.079c4.084,2.791,9.209,4.007,13.592,6.363c9.294,4.997,17.175,10.509,25.001,17.552
	c8.199,7.379,17.806,12.326,27.718,16.975c2.477,1.162,4.948,2.343,7.441,3.471c-0.07-0.007-0.139-0.013-0.208-0.02
	c-9.126-1.03-18.085-0.285-27.186-0.947c-9.089-0.661-17.672-1.774-26.847-1.618c-9.07,0.154-17.857-1.983-26.896-1.736
	c-8.842,0.242-17.781,1.113-26.605,0.115c-9.782-1.107-18.98-1.876-28.855-1.416c-8.959,0.418-17.544-0.261-26.465-0.513
	c-9.272-0.262-18.574-0.033-27.85-0.155c-9.356-0.122-18.454,1.443-27.742,2.13C149.415,97.522,162.851,93.452,175.367,87.076z"/>
<path d="M106.587,212.143c6.728,0.77,12.966-4.079,19.675-2.236c4.824,1.326,9.47-5.406,5.188-8.911
	c-3.176-2.6-6.409-2.879-10.416-2.426c-2.861,0.324-6.346,1.77-9.512,2.235c-0.512-6.593,1.358-13.315,2.365-19.786
	c1.186-7.612,1.085-12.961-3.887-19.097c-1.27-1.568-4.077-0.665-4.495,1.187c-0.808,3.584,0.047,7.074-0.714,10.7
	c-0.783,3.737-1.834,7.394-2.776,11.091c-1.894,7.433-2.974,15.486-0.996,23.004C101.724,210.586,104.042,211.853,106.587,212.143z"
	/>
<path d="M149.041,207.205c8.669-0.417,4.029-12.795,3.604-17.768c-0.364-4.261,0.817-7.548,1.12-11.663
	c0.352-4.785-2.349-8.538-3.778-12.923c-0.813-2.494-4.835-2.882-5.453,0c-0.903,4.199,0.866,8.516-0.408,12.512
	c-1.367,4.287-2.502,7.446-2.552,12.074C141.519,194.509,140.932,207.595,149.041,207.205z"/>
<path d="M169.973,189.224c-0.09,3.898-1.876,12.813,0.908,17.229c-0.025,0.31-0.015,0.623,0.043,0.93
	c1.381,7.282,10.394,8.602,16.489,7.233c6.515-1.463,12.565-5.885,15.111-12.146c2.412-5.931,1.352-12.561-4.242-16.209
	c-1.288-0.84-2.649-1.435-4.051-1.844c4.335-5.017,7.126-10.962,4.517-17.505c-4.167-10.452-14.72-9.586-22.342-4.529
	c-1.882-1.984-5.569-1.076-5.781,1.601C167.582,172.278,170.171,180.671,169.973,189.224z M192.337,201.095
	c-2.079,2.571-5.589,4.595-8.882,4.917c-0.863,0.084-1.673,0.005-2.458-0.166c1.643-3.085,1.753-7.853,1.602-11.775
	c0.405-0.058,0.809-0.15,1.207-0.32C189.666,191.254,197.975,194.126,192.337,201.095z M189.944,173.276
	c-1.543,3.927-4.875,7.3-8.176,10.311c-0.392-2.427-0.959-4.798-1.77-7.279c-1.175-3.593-1.225-7.317-2.234-10.905
	C184.035,164.028,193.129,165.164,189.944,173.276z"/>
<path d="M220.699,206.341c0.026-3.924-0.146-7.964-0.336-11.975c3.692,2.14,7.604,4.003,11.208,6.183
	c2.647,1.601,5.324,3.161,8.057,4.611c1.315,0.699,2.756,1.665,4.125,2.23c0.951,0.393,2.452,0.338,3.206,0.926
	c1.314,1.025,3.822,0.964,4.184-1.105c1.315-7.514-4.044-10.202-9.846-13.476c-3.488-1.969-6.799-3.828-10.579-5.175
	c-0.085-0.031-0.17-0.058-0.254-0.088c1.95-1.438,3.858-3.165,5.493-4.83c4.751-4.841,8.462-12.184,6.04-19.005
	c-1.88-5.292-6.89-7.202-12.148-6.316c-3.499,0.59-5.138,2.6-8.294,3.687c-3.328,1.146-4.902,0.188-7.599,2.643
	c-0.792,0.722-0.414,1.639,0.299,2.027c-0.275,0.008-0.549,0.017-0.825,0.025c-1.332,0.039-2.2,0.853-2.664,2.028
	c-1.086,2.75-0.766,4.678-0.411,7.525c0.532,4.26-0.349,8.438-0.925,12.648c-0.87,6.364-2.634,14.422,1.041,20.206
	C213.352,213.644,220.664,211.914,220.699,206.341z M215.858,166.554c2.14-1.67,7.399-0.79,10.177-1.341
	c4.414-0.875,8.675-0.57,7.549,5.087c-0.763,3.837-3.754,6.637-6.582,9.059c-0.997,0.853-2.159,2.228-3.352,2.813
	c-1.113,0.546-2.509,0.713-3.92,0.825c-0.108-1.132-0.234-2.259-0.396-3.358c-0.421-2.842-2.39-5.743-2.966-8.549
	c1.442-1.287,1.251-3.94-0.784-4.365C215.677,166.678,215.768,166.624,215.858,166.554z"/>
<path d="M268.392,203.382c0.977-3.35,1.637-6.834,2.179-10.348c0.597,0.383,1.179,0.78,1.732,1.076
	c2.168,1.165,4.152,1.787,6.588,2.124c4.483,0.62,8.97,0.084,12.72-2.295c1.072,1.817,2.231,3.594,3.62,5.27
	c2.209,2.667,7.252,1.25,7.904-2.086c1.116-5.705-1.961-8.432-4.749-13.004c-2.146-3.519-4.149-6.802-6.703-10.057
	c-3.75-4.779-8.834-13.663-15.367-14.897c-7.689-1.453-11.319,7.943-12.656,13.786c-2.174,9.504-5.039,20.898-2.548,30.433
	C262.068,207.044,267.364,206.905,268.392,203.382z M272.291,180.55c0.405-2.749,0.803-5.544,1.633-8.203
	c0.335-1.074,0.646-2.503,1.355-3.473c0.066,0.09,0.138,0.195,0.217,0.313c2.866,4.327,6.427,8.408,9.347,12.789
	c0.831,1.247,1.581,2.528,2.301,3.82c-3.774-0.654-7.815-0.24-11.751-0.76c-1.327-0.176-2.547-0.277-3.685-0.263
	C271.897,183.358,272.086,181.946,272.291,180.55z"/>
<path d="M311.639,204.503c3.61,2.491,7.318-1.611,6.707-5.156c-0.443-2.571-0.497-5.299-0.475-8.04
	c1.824,0.444,4.316,2.583,5.642,3.207c2.943,1.386,5.584,2.617,8.329,4.388c3.52,2.27,8.673,5.081,13.015,4.744
	c2.216-0.172,4.299-1.794,4.219-4.219c-0.115-3.514-1.945-5.402-4.962-6.875c-3.334-1.626-6.601-3.369-9.937-5.006
	c-1.847-0.906-3.711-1.635-5.564-2.397c1.963-1.542,3.814-3.195,5.533-4.771c4.472-4.103,8.296-10.333,6.109-16.578
	c-1.824-5.208-7.206-8.137-12.507-8.199c-6.258-0.072-11.301,3.36-17.046,5.235c-1.321,0.431-1.118,2.442,0.332,2.459
	c4.441,0.05,16.099-2.102,18.874,2.3c2.708,4.298-6.332,11.697-12.183,14.819c-0.123-2.216-0.317-4.433-0.84-6.581
	c-1.098-4.5-3.202-5.659-5.83-9.282c-1.596-2.202-4.66-0.354-3.603,2.107C312.323,177.984,299.53,196.146,311.639,204.503z"/>
<path d="M355.605,167.622c1.091,2.362,3.139,3.482,4.612,5.522c2.746,3.806,4.034,8.036,8.815,9.044
	c-0.402,0.876-0.8,1.754-1.165,2.649c-2.445,5.993-5.353,15.786,2.549,18.747c3.144,1.177,6.145-2.35,5.304-5.304
	c-0.904-3.174-1.692-4.322-0.856-7.751c0.677-2.777,1.906-5.372,3.112-7.946c3.45-7.37,7.516-14.85,10.38-22.429
	c1.246-3.298-3.353-7.062-6.265-4.816c-2.921,2.251-5.087,4.93-7.072,8.042c-1.595,2.499-2.211,5.777-3.856,8.135
	c-1.271,1.822-0.641,1.367-1.773-0.685c-0.909-1.646-1.978-2.94-3.456-4.111c-1.8-1.427-3.687-2.054-5.192-3.915
	c-1.321-1.633-2.161-3.682-3.158-5.513c-1.259-2.314-5.208-0.744-4.321,1.822C354.22,161.892,354.372,164.95,355.605,167.622z"/>
<path d="M42.588,210.304c2.522-0.959,10.08,1.294,5.954,4.504c-2.625,2.044,0.882,6.655,3.59,4.652
	c6.02-4.451,14.491,0.495,21.35-1.155c2.236-0.538,2.18-3.9,0-4.471c-4.477-1.171-9.554-1.656-14.186-1.959
	c-1.177-0.077-2.33-0.059-3.457,0.057c-0.91-5.294-8.19-9.69-14.555-7.946c-1.333,0.366-3.189,1.009-4.588,2.014
	c-0.163-2.393-0.371-4.599-0.091-7.044c0.425-3.704,0.902-6.986,0.656-10.757c-0.177-2.717-1.142-7.732-0.128-10.996
	c2.348,1.431,4.65,2.597,7.691,1.558c3.272-1.119,6.12-4.119,7.752-7.1c1.13-2.063,2.161-6.449,1.519-9.45
	c5.884,0.599,11.663,1.543,17.276-1.609c1.187-0.667,1.12-2.971-0.415-3.178c-3.926-0.531-7.872-0.013-11.816,0.171
	c-3.996,0.188-7.619-0.03-11.366,1.544c-0.646,0.272-0.942,0.662-1.028,1.351c-0.042,0.328-0.082,0.656-0.123,0.984
	c-0.088,0.703,0.383,1.113,0.948,1.227c0.146,0.185,0.32,0.356,0.553,0.494c1.403,0.828-1.457,5.285-2.115,6.148
	c-2.508,3.297-5.143,1.86-8.247,0.337c-2.424-1.188-4.862,0.287-5.099,2.927c-0.564,6.276-0.123,12.249-0.352,18.51
	c-0.247,6.739-2.797,13.467-1.958,20.31c0.493,4.02,4.546,5.952,7.86,3.349C40.148,213.261,40.116,211.243,42.588,210.304z"/>
<path d="M412.3,222.342c0.329-0.044,0.659-0.087,0.989-0.131c1.36-0.18,2.187-0.768,2.689-2.047c1.169-2.979,1.759-6.309,3.8-8.843
	c2.853-3.54,7.064-5.493,9.972-0.781c0.586,0.949,1.754,1.796,2.934,1.683c4.252-0.408,7.674-2.346,12.068-2.229
	c3.735,0.1,7.335,0.729,10.983-0.381c1.536-0.468,2.289-1.703,2.451-3.219c0.491-4.631,1.002-9.254,1.556-13.869
	c0.324-2.696,0.442-5.271,1.225-7.895c0.211-0.706,0.507-1.25,0.641-1.767c0.97-0.116,1.913-0.352,2.808-0.738
	c1.336-0.577,1.423-2.648,0.458-3.552c-1.523-1.428-2.903-1.554-4.15-0.805c-3.543-0.506-7.009-2.361-9.396-4.944
	c-1.323-1.431-1.799-2.488-2.005-4.382c-0.047-0.438-0.019-3.416,0.576-4.372c0.386-0.077,0.777-0.145,1.182-0.191
	c3.419-0.395,2.725-5.255-0.176-4.866c-3.595-0.301-6.903,1.009-10.596,0.544c-3.74-0.471-7.376-0.673-11.163-0.635
	c-3.545,0.036-6.255,1.162-9.649,1.721c-2.688,0.443-3.977,0.077-6.084,1.942c-1.753,1.551,0.766,3.915,2.524,2.524
	c0.743-0.587,6.126-1.103,7.271-1.327c3.537-0.695,7.376-0.131,10.947,0.198c2.922,0.269,5.785,1.233,8.708,1.378
	c0.622,0.031,1.212-0.012,1.789-0.085c-0.742,2.521-0.606,5.386,0.49,7.888c1.95,4.445,6.951,8.298,12.088,9.439
	c-2.802,6.285-4.517,16.465-5.26,20.935c-2.873,0.286-5.858-0.367-8.723-0.356c-3.397,0.013-5.956,1.392-9.007,2.009
	c-3.485-4.168-8.618-5.768-13.945-3.01c-5.836,3.022-8.942,9.058-9.644,15.342C408.922,219.022,409.574,222.703,412.3,222.342z"/>
<g>
</g>
<g>
</g>
<g>
</g>
<g>
</g>
<g>
</g>
<g>
</g>
<g>
</g>
<g>
</g>
<g>
</g>
<g>
</g>
<g>
</g>
<g>
</g>
<g>
</g>
<g>
</g>
<g>
</g>
</svg>
