<?xml version="1.0" encoding="utf-8"?>
<!-- Generator: Adobe Illustrator 16.0.0, SVG Export Plug-In . SVG Version: 6.00 Build 0)  -->
<!DOCTYPE svg PUBLIC "-//W3C//DTD SVG 1.1//EN" "http://www.w3.org/Graphics/SVG/1.1/DTD/svg11.dtd">
<svg version="1.1" id="Layer_1" xmlns="http://www.w3.org/2000/svg" xmlns:xlink="http://www.w3.org/1999/xlink" x="0px" y="0px"
	 width="2400px" height="470px" viewBox="116.5 153.5 2400 470" enable-background="new 116.5 153.5 2400 470" xml:space="preserve"
	>
<path fill="#F05228" d="M315.731,557.68c-9.77,0-19.549-3.64-27.002-10.923L153.688,414.875c-14.916-14.568-14.916-38.185,0-52.752
	c14.917-14.568,39.097-14.568,54.014,0l108.029,105.504l243.068-237.383c14.916-14.564,39.103-14.568,54.01,0
	c14.921,14.567,14.921,38.189,0,52.751L342.738,546.758C335.28,554.038,325.504,557.68,315.731,557.68z"/>
<polygon fill="#669900" points="649.7,224.5 936.1,216.9 936.1,275.7 822.5,273.3 831.3,541.3 754.901,541.3 764.1,272.1 
	649.7,269.7 "/>
<path fill="#669900" d="M964.501,488.099l148,1.2l0.399,51.601l-217.6,0.8l6-236.4l179.2-1.2l30.399,35.2l0.801,109.2l-148.4-0.8
	L964.501,488.099z M1048.101,397.7l1.2-43.2l-87.2,3.2l0.4,41.6L1048.101,397.7z"/>
<path fill="#669900" d="M1390.898,544.5l3.601-191.6l-62.8,0.4l4.399,189.2h-61.6l5.2-189.2h-64.4l3.2,191.2h-68.4l3.601-238
	l263.6-2.8l38,37.2l2,203.6H1390.898z"/>
<path fill="#669900" d="M1560.495,619.7h-64.8l-4.4-313.2l168.4-0.4l35.6,37.6l-2,166l-134.399,0.399L1560.495,619.7z
	 M1554.896,357.7l2,104l73.2,0.8l-0.4-106.4L1554.896,357.7z"/>
<path fill="#669900" d="M1730.491,211.7h52.399l9.2,330.399h-71.2L1730.491,211.7z"/>
<path fill="#669900" d="M2021.286,339.3l1.6,151.2h19.601v51.2l-216.4,0.8l6.8-237.2l147.601-1.2L2021.286,339.3z M1956.487,490.099
	l2.8-135.6l-66,2.8l4,132L1956.487,490.099z"/>
<path fill="#669900" d="M2242.085,540.5l-129.601,0.4l4-172l-58-1.6v-46l59.2-1.6l1.601-90.4l60,0.4l1.199,87.6l66.4-2.8v57.6
	l-65.6-1.6l2,117.2h58.8V540.5z"/>
<path fill="#669900" d="M2342.882,488.099l148,1.2l0.399,51.601l-217.6,0.8l6-236.4l179.2-1.2l30.399,35.2l0.801,109.2l-148.4-0.8
	L2342.882,488.099z M2426.482,397.7l1.2-43.2l-87.2,3.2l0.4,41.6L2426.482,397.7z"/>
</svg>
