<svg xmlns="http://www.w3.org/2000/svg" viewBox="0 0 518.64 132.55"><defs><style>.a{fill:#2b435e;}</style></defs><title>logo</title><path class="a" d="M94.76,116.49v-5.2c11-1.19,11.43-1.78,11.28-15.14l-.3-55.37h-.45L74,115.45H69.83l-28.57-73h-.59L39,80.64c-.67,11.65-.67,17.74-.3,22.34.45,6.23,3.49,7.42,12.77,8.16v5.34H18v-5.34c7.72-.74,10.32-2.37,11.28-7.87C30.19,98.68,30.93,92,32,78l2.15-29.17c1.19-16.11.3-17.22-11.87-18.26v-5.2H49.19L77,89.62l28.57-64.2h26.72v5.2c-11.58,1-12,1.48-11.73,14l1.26,51.58c.3,13.36.74,14,12,15.14v5.2Z" transform="translate(-18.02 -18)"/><path class="a" d="M201.34,59c-7.12,1-8.46,2.3-11.95,9.72s-7.79,19-16.62,39.86c-9.28,22.64-11.8,30.65-14.1,38.15a4.83,4.83,0,0,1-5.2,3.79c-3.93,0-9.28-3.79-9.28-8.24,0-2.45,1.26-3.64,3.86-5.27a27.59,27.59,0,0,0,10.46-10.39,46.5,46.5,0,0,0,3.34-7.27,9.52,9.52,0,0,0-.3-6.38c-6.53-18.41-13.51-37-16.7-44.68-2.6-6.68-4.3-8.39-11.43-9.28v-4.9h32.06V59c-6.38.89-7,2.15-5.49,6.83l11.13,32.51c3.49-9,8.68-23.53,11.36-31.91,1.56-4.82.67-6.38-6.83-7.42v-4.9h25.68Z" transform="translate(-18.02 -18)"/><path class="a" d="M284.76,67.21c14.32,2.15,24.94,8.54,24.94,22,0,9.43-5.12,16.92-13.36,21.3-7,4.08-17,5.94-28.13,5.94h-33.4v-5.2c11.21-1,12.25-1.78,12.25-13.36V43.83c0-11.43-.89-12.47-11.21-13.21v-5.2H274.3c10.32,0,17,1.41,22,4.75s7.94,9.28,7.94,16c0,13.21-11.13,18.85-19.52,20.63Zm-17.14-2.08c13.51,0,19.89-5.2,19.89-16.92,0-11.06-6.38-17-16.4-17-3.34,0-5.94.59-6.83,1.56-1.19.89-1.71,2.67-1.71,6.23V65.13Zm-5,32.8c0,9.72,2.45,12.62,10.69,12.47,9.43,0,18.85-5.64,18.85-19.59,0-13.51-9.13-19.74-24.94-19.74h-4.6Z" transform="translate(-18.02 -18)"/><path class="a" d="M354.6,52.51c18.33,0,30.8,14.4,30.8,31.77,0,22.79-16.11,33.92-31.1,33.92-20.71,0-31.84-15.81-31.84-31.32,0-23.45,17.81-34.36,32-34.36Zm-2,5.64c-6.68,0-13.21,8-13.21,23.82,0,17.37,6.38,30.58,16.25,30.58,6.68,0,12.77-5,12.77-24.64,0-17.81-5.49-29.76-15.66-29.76Z" transform="translate(-18.02 -18)"/><path class="a" d="M428.15,52.51c18.33,0,30.8,14.4,30.8,31.77,0,22.79-16.11,33.92-31.1,33.92-20.71,0-31.84-15.81-31.84-31.32,0-23.45,17.81-34.36,32-34.36Zm-2,5.64c-6.68,0-13.21,8-13.21,23.82,0,17.37,6.38,30.58,16.25,30.58,6.68,0,12.77-5,12.77-24.64,0-17.81-5.49-29.76-15.66-29.76Z" transform="translate(-18.02 -18)"/><path class="a" d="M514.47,116.49c-5.42-6.53-13.06-17.81-20-27.54-1.56-2.08-2.6-2.89-3.64-2.89a3.36,3.36,0,0,0-1.71.15v15.07c0,8.83,1.11,9.43,9.57,10.54v4.68h-34v-4.68c8.76-1.11,9.72-1.86,9.72-10.54V37c0-8.24-.82-9-8.68-9.72V22.82A179.9,179.9,0,0,0,489.09,18V81.83a14,14,0,0,0,8.39-5.2A80.81,80.81,0,0,0,506,64.83c1.93-3.34,1.63-4.9-4-5.49V54.59l29.54-1.19V58c-9,1.48-13.29,3.19-17.52,7.57A132.25,132.25,0,0,0,503.41,77.9c3.34,5,16.4,21.89,20.48,26.57,4.6,4.9,7.5,6.53,12.77,7.35v4.68Z" transform="translate(-18.02 -18)"/></svg>